<svg width="229" height="75" viewBox="0 0 229 75" fill="none" xmlns="http://www.w3.org/2000/svg">
<path d="M10.0359 2.14307H218.964C222.982 2.14307 226.197 5.35735 226.197 9.37521V65.6252C226.197 69.6431 222.982 72.8574 218.964 72.8574H10.0359C6.018 72.8574 2.80371 69.6431 2.80371 65.6252V9.37521C2.80371 5.35735 6.018 2.14307 10.0359 2.14307Z" fill="#212529"/>
<path d="M218.964 1.20557H10.0359C5.50023 1.20557 1.86621 4.83959 1.86621 9.37521V65.6252C1.86621 70.1608 5.50023 73.7949 10.0359 73.7949H218.964C223.5 73.7949 227.134 70.1608 227.134 65.6252V9.37521C227.134 4.83958 223.5 1.20557 218.964 1.20557Z" stroke="#212529" stroke-opacity="0.2" stroke-width="1.875"/>
<path fill-rule="evenodd" clip-rule="evenodd" d="M132.66 53.0897C130.089 53.0897 128.16 51.8039 127.839 49.8754H124.785C124.946 53.4111 128 55.8218 132.339 55.8218C137 55.8218 140.053 53.4111 140.053 49.7147C140.053 46.8218 138.285 45.2147 134.268 44.2504L132.018 43.7682C129.446 43.1254 128.321 42.3218 128.321 40.8754C128.321 39.1075 129.928 37.8218 132.339 37.8218C134.75 37.8218 136.357 38.9468 136.518 41.0361H139.571C139.41 37.6611 136.518 35.2504 132.339 35.2504C128 35.2504 125.107 37.6611 125.107 41.0361C125.107 43.7682 126.875 45.5361 130.41 46.3397L132.982 46.9825C135.553 47.6254 136.678 48.5897 136.678 50.0361C136.839 51.8039 135.071 53.0897 132.66 53.0897ZM80.589 50.0361H73.0354L71.1069 55.3396H67.8926L75.1247 35.4111H78.4997L85.5711 55.3396H82.3569L80.589 50.0361ZM73.6783 47.4647H79.7854L76.8926 38.7861H76.7319L73.6783 47.4647ZM95.214 55.5004C98.9104 55.5004 101.321 52.6075 101.321 48.1075C101.321 43.6075 98.9104 40.7147 95.214 40.7147C93.2854 40.7147 91.5176 41.6789 90.5533 43.2861V40.8754H87.6604V60.1611H90.714V52.9289C91.5176 54.6968 93.2854 55.6611 95.214 55.5004ZM98.1069 48.1075C98.1069 45.2147 96.6604 43.2861 94.2497 43.2861C91.9997 43.2861 90.3926 45.2147 90.3926 48.1075C90.3926 51.0004 91.9997 52.9289 94.2497 52.9289C96.6604 52.9289 98.1069 51.0004 98.1069 48.1075ZM111.125 55.5004C114.821 55.5004 117.232 52.6075 117.232 48.1075C117.232 43.6075 114.821 40.7147 111.125 40.7147C109.196 40.7147 107.428 41.6789 106.464 43.2861V40.8754H103.571V60.1611H106.464V52.9289C107.428 54.6968 109.196 55.6611 111.125 55.5004ZM114.178 48.1075C114.178 45.2147 112.732 43.2861 110.321 43.2861C108.071 43.2861 106.464 45.2147 106.464 48.1075C106.464 51.0004 108.071 52.9289 110.321 52.9289C112.571 52.9289 114.178 51.0004 114.178 48.1075ZM146.482 37.3397V40.7147H149.214V43.1254H146.482V51.1611C146.482 52.4468 146.964 52.9289 148.25 52.9289C148.571 52.9289 148.893 52.9289 149.214 52.9289V55.3396C148.732 55.5004 148.089 55.5004 147.607 55.5004C144.714 55.5004 143.589 54.3754 143.589 51.6432V43.1254H141.5V40.7147H143.589V37.3397H146.482ZM157.732 40.7147C153.553 40.7147 150.821 43.6075 150.821 48.1075C150.821 52.7682 153.553 55.5004 157.732 55.5004C161.91 55.5004 164.643 52.6075 164.643 48.1075C164.643 43.4468 162.071 40.7147 157.732 40.7147ZM161.589 48.1075C161.589 44.8932 160.143 43.1254 157.732 43.1254C155.321 43.1254 153.875 45.0539 153.875 48.1075C153.875 51.3218 155.321 53.0897 157.732 53.0897C160.143 53.0897 161.589 51.3218 161.589 48.1075ZM169.946 40.8754H167.053V55.5004H170.107V46.8218C169.946 46.0182 170.268 45.0539 170.91 44.4111C171.553 43.7682 172.357 43.4468 173.16 43.4468C173.643 43.4468 174.125 43.4468 174.446 43.6075V40.8754C174.125 40.8754 173.803 40.7147 173.482 40.7147C171.875 40.7147 170.428 41.6789 169.946 43.2861V40.8754ZM188.428 51.1611C188.107 53.7325 185.375 55.6611 182.16 55.6611C177.982 55.6611 175.25 52.7682 175.25 48.2682C175.25 43.7682 177.821 40.7147 182 40.7147C186.018 40.7147 188.589 43.4468 188.589 47.9468V48.9111H178.303V49.0718C178.143 50.1968 178.625 51.1611 179.268 51.9647C180.071 52.7682 181.035 53.2504 182.16 53.0897C183.607 53.2504 185.053 52.4468 185.535 51.0004H188.428V51.1611ZM185.535 46.8218H178.303C178.303 45.8575 178.625 44.8932 179.428 44.2504C180.232 43.6075 181.035 43.1254 182 43.1254C182.964 43.1254 183.928 43.4468 184.571 44.2504C185.214 44.8932 185.535 45.8575 185.535 46.8218Z" fill="white"/>
<path fill-rule="evenodd" clip-rule="evenodd" d="M108.715 18.0535H110.161V28.1785H108.715V18.0535ZM78.0181 19.9821C77.2146 19.0178 75.9289 18.5357 74.6431 18.6964H71.1074V28.3392H74.6431C77.536 28.3392 79.1431 26.5714 79.1431 23.5178C79.3039 22.0714 78.8217 20.7857 78.0181 19.9821ZM74.4824 26.8928H72.7146V19.9821H74.4824C75.4467 19.9821 76.2503 20.3035 76.8931 20.9464C77.536 21.5892 77.8574 22.5535 77.6967 23.3571C77.8574 24.3214 77.536 25.125 76.8931 25.7678C76.2503 26.5714 75.286 26.8928 74.4824 26.8928ZM80.7503 24.4821C80.5896 23.1964 81.2324 21.9107 82.3574 21.2678C83.4824 20.625 84.9289 20.625 85.8931 21.2678C86.8574 21.9107 87.661 23.1964 87.5003 24.4821C87.661 25.7678 87.0181 27.0535 85.8931 27.6964C84.7681 28.3392 83.3217 28.3392 82.1967 27.6964C81.2324 27.0535 80.5896 25.9285 80.7503 24.4821ZM84.1253 22.0714C85.411 22.0714 86.0538 23.0357 86.0538 24.4821C86.0538 26.0892 85.411 27.0535 84.1253 27.0535C82.8396 27.0535 82.1967 26.0892 82.1967 24.4821C82.1967 23.0357 83.0003 22.0714 84.1253 22.0714ZM96.661 28.1785H95.2146L93.6074 22.875L92.161 28.1785H90.7146L88.786 20.9464H90.2324L91.5181 26.4107H91.6788L93.1253 20.9464H94.5717L96.0181 26.4107H96.1788L97.4646 20.9464H98.911L96.661 28.1785ZM101.643 20.9464H100.197V28.1785H101.643V24C101.643 23.5178 101.804 23.0357 102.125 22.7143C102.447 22.3928 102.929 22.2321 103.411 22.2321C104.536 22.2321 105.018 22.875 105.018 24V28.3392H106.465V23.6785C106.625 23.0357 106.304 22.2321 105.822 21.75C105.34 21.2678 104.697 20.9464 103.893 20.9464C102.929 20.9464 102.125 21.4285 101.804 22.2321H101.643V20.9464ZM113.697 21.2678C112.572 21.9107 111.929 23.1964 112.09 24.4821C111.929 25.7678 112.572 27.0535 113.697 27.6964C114.822 28.3392 116.268 28.3392 117.393 27.6964C118.518 27.0535 119.161 25.7678 119 24.4821C119.161 23.1964 118.518 21.9107 117.393 21.2678C116.268 20.625 114.822 20.625 113.697 21.2678ZM117.554 24.4821C117.554 22.875 116.911 22.0714 115.625 22.0714C114.34 22.0714 113.697 23.0357 113.697 24.4821C113.697 26.0892 114.34 27.0535 115.625 27.0535C116.75 27.0535 117.554 26.0892 117.554 24.4821ZM123.179 24C121.411 24.1607 120.447 24.8035 120.447 26.0892C120.447 26.7321 120.768 27.2142 121.25 27.6964C121.732 28.1785 122.375 28.3393 122.857 28.1785C123.661 28.1785 124.625 27.8571 125.107 27.0535H125.268V28.0178H126.715V23.0357C126.715 21.4285 125.75 20.625 123.822 20.625C122.215 20.625 121.09 21.4285 120.929 22.7143H122.375C122.536 22.2321 123.018 21.9107 123.822 21.9107C124.786 21.9107 125.268 22.3928 125.268 23.0357V23.8393L123.179 24ZM125.107 25.4464V24.8035L123.34 24.9642C122.375 24.9642 121.893 25.4464 121.893 25.9285C121.893 26.5714 122.536 26.8928 123.179 26.8928C123.661 26.8928 124.143 26.7321 124.465 26.5714C124.947 26.4107 125.107 25.9285 125.107 25.4464ZM131.375 20.7857C129.607 20.7857 128.322 22.2321 128.322 24.4821C128.322 26.7321 129.447 28.1785 131.375 28.1785C132.34 28.1785 133.143 27.6964 133.625 26.8928H133.786V28.0178H135.232V17.8928H133.786V21.9107H133.625C133.304 21.2678 132.34 20.7857 131.375 20.7857ZM129.929 24.4821C129.929 26.0892 130.732 26.8928 131.857 26.8928C132.982 26.8928 133.786 25.9285 133.786 24.4821C133.786 23.0357 132.982 22.0714 131.857 22.0714C130.572 22.0714 129.929 23.0357 129.929 24.4821ZM142.786 21.2678C141.661 21.9107 141.018 23.1964 141.179 24.4821C141.018 25.7678 141.661 27.0535 142.786 27.6964C143.911 28.3392 145.357 28.3392 146.482 27.6964C147.607 27.0535 148.25 25.7678 148.09 24.4821C148.25 23.1964 147.607 21.9107 146.482 21.2678C145.197 20.625 143.75 20.625 142.786 21.2678ZM146.482 24.4821C146.482 22.875 145.84 22.0714 144.554 22.0714C143.268 22.0714 142.625 23.0357 142.625 24.4821C142.625 26.0892 143.268 27.0535 144.554 27.0535C145.84 27.0535 146.482 26.0892 146.482 24.4821ZM151.304 20.9464H149.857V28.1785H151.304V24C151.304 23.5178 151.465 23.0357 151.786 22.7143C152.107 22.3928 152.59 22.2321 153.072 22.2321C154.197 22.2321 154.679 22.875 154.679 24V28.3392H156.125V23.6785C156.286 23.0357 155.965 22.2321 155.482 21.75C155 21.2678 154.357 20.9464 153.554 20.9464C152.59 20.9464 151.786 21.4285 151.465 22.2321H151.304V20.9464ZM164 19.1785V20.9464H165.607V22.2321H164V25.9285C164 26.7321 164.322 27.0535 164.965 27.0535C165.125 27.0535 165.286 27.0535 165.447 27.0535V28.1785C165.125 28.1785 164.965 28.1785 164.643 28.1785C163.036 28.1785 162.393 27.6964 162.393 26.25V22.2321H161.268V21.1071H162.393V19.3393H164V19.1785ZM168.982 18.0535H167.536V28.1785H168.982V24C168.982 23.5178 169.143 23.0357 169.465 22.7143C169.786 22.3928 170.268 22.2321 170.75 22.2321C171.715 22.2321 172.357 22.875 172.357 24V28.3392H173.804V23.6785C173.965 23.0357 173.643 22.2321 173.161 21.75C172.679 21.2678 172.036 20.9464 171.232 20.9464C170.268 20.9464 169.465 21.4285 168.982 22.2321H168.822V18.0535H168.982ZM182.161 26.25C181.84 27.5357 180.393 28.5 178.947 28.3392C177.982 28.3392 177.018 28.0178 176.375 27.2143C175.732 26.5714 175.411 25.6071 175.572 24.6428C175.411 23.6785 175.732 22.7142 176.375 22.0714C177.018 21.2678 177.982 20.9464 178.947 20.9464C181.036 20.9464 182.161 22.3928 182.161 24.6428V25.125H177.179C177.179 25.6071 177.34 26.25 177.661 26.5714C177.982 26.8928 178.625 27.2143 179.107 27.2143C179.75 27.375 180.554 26.8928 180.875 26.4107H182.161V26.25ZM180.715 23.8393H177.179C177.179 23.3571 177.34 22.875 177.661 22.5535C177.982 22.2321 178.465 22.0714 178.947 22.0714C179.429 22.0714 179.911 22.2321 180.232 22.5535C180.715 22.875 180.875 23.3571 180.715 23.8393Z" fill="white"/>
<path fill-rule="evenodd" clip-rule="evenodd" d="M43.3034 18.696C43.4642 20.7853 42.8213 22.8746 41.3749 24.4818C40.0892 26.0889 37.9999 27.0532 35.9106 27.0532C35.7499 24.9639 36.3927 23.0353 37.8392 21.4282C39.2856 19.9818 41.2142 19.0175 43.3034 18.696ZM49.8927 31.2318C47.482 32.6782 46.0356 35.4103 45.8749 38.1425C45.8749 41.3568 47.8034 44.2496 50.6963 45.5353C50.0534 47.3032 49.2499 49.071 48.1249 50.6782C46.6784 52.9282 45.0713 55.1782 42.4999 55.1782C41.3749 55.1782 40.5713 54.8568 39.607 54.5353C38.8034 54.2139 37.8392 53.7318 36.3927 53.7318C34.9463 53.7318 33.982 54.0532 33.0177 54.5353C32.2142 54.8568 31.4106 55.1782 30.4463 55.1782C28.0356 55.3389 26.2677 52.7675 24.6606 50.5175C21.607 46.0175 19.1963 37.821 22.4106 32.196C23.857 29.4639 26.7499 27.696 29.9642 27.696C31.2499 27.696 32.5356 28.1782 33.6606 28.6603C34.4642 28.9818 35.2677 29.3032 35.9106 29.3032C36.3927 29.3032 37.1963 28.9818 38.1606 28.6603C39.607 28.1782 41.2142 27.3746 42.982 27.696C45.8749 27.696 48.4463 28.9818 49.8927 31.2318Z" fill="white"/>
</svg>
