<svg width="479" height="404" viewBox="0 0 479 404" fill="none" xmlns="http://www.w3.org/2000/svg">
<path fill-rule="evenodd" clip-rule="evenodd" d="M389.417 181.61C391.389 177.789 394.462 174.455 398.481 172.135C409.459 165.796 423.41 169.36 429.606 180.097C435.803 190.834 431.91 204.699 420.932 211.037C417.209 213.186 413.14 214.195 409.145 214.169" fill="#FFC2C8"/>
<path d="M389.417 181.609C391.389 177.789 394.462 174.455 398.481 172.135C409.459 165.796 423.41 169.36 429.606 180.097C435.803 190.834 431.91 204.699 420.932 211.037C417.209 213.186 413.14 214.195 409.145 214.169" stroke="black" stroke-width="3.03681" stroke-miterlimit="1.5" stroke-linecap="round" stroke-linejoin="round"/>
<path d="M407.334 202.446C412.144 202.446 416.043 198.547 416.043 193.737C416.043 188.927 412.144 185.028 407.334 185.028C402.524 185.028 398.625 188.927 398.625 193.737C398.625 198.547 402.524 202.446 407.334 202.446Z" fill="#F6A8B0"/>
<path fill-rule="evenodd" clip-rule="evenodd" d="M351.654 89.8071C363.157 58.314 334.351 28.1911 301.914 50.2867C310.772 1.98969 251.144 -19.9574 199.889 34.4574C190.746 14.2832 146.428 21.3028 133.566 52.8196C95.4042 39.6307 73.3813 67.6264 90.6968 97.7794C90.6968 97.7794 6.59116 139.603 11.127 176.185C14.0839 200.038 37.6739 201.98 37.6739 201.98C37.6739 201.98 25.6867 239.145 41.3878 257.812C61.607 281.854 91.7023 271.639 91.7023 271.639C91.7023 271.639 94.9489 296.603 127.617 303.51C155.216 309.353 172.585 296.095 172.585 296.095C172.585 296.095 191.344 311.027 225.265 309.844C247.229 309.075 257.844 288.407 257.844 288.407C257.844 288.407 301.239 305.876 323.528 300.128C346.976 294.084 345.055 271.376 345.055 271.376C345.055 271.376 378.272 281.606 403.518 254.908C426.144 230.981 410.68 200.158 410.68 200.158C410.68 200.158 435.352 180.993 432.425 154.809C428.746 121.947 384.44 104.405 351.654 89.8071Z" fill="#F6C4C9" stroke="black" stroke-width="3.07516" stroke-miterlimit="1.5" stroke-linecap="round" stroke-linejoin="round"/>
<path fill-rule="evenodd" clip-rule="evenodd" d="M354.575 90.8552C380.283 103.332 412.34 124.764 415.024 148.758C417.947 174.942 398.392 185.947 398.392 185.947C398.392 185.947 413.306 217.622 390.68 241.548C365.433 268.243 335.575 264.101 335.575 264.101C335.575 264.101 329.762 286.001 299.54 294.514C277.383 300.749 257.8 288.143 257.8 288.143C257.8 288.143 301.195 305.605 323.484 299.862C346.935 293.812 345.012 271.105 345.012 271.105C345.012 271.105 378.232 281.341 403.476 254.64C426.103 230.715 410.635 199.889 410.635 199.889C410.635 199.889 435.312 180.722 432.382 154.537C428.818 122.659 387.009 105.197 354.575 90.8552ZM322.07 42.4934C337.018 41.6317 347.189 62.8488 344.895 82.7979C343.645 93.6681 343.146 107.677 354.575 110.897C346.714 104.784 350.642 92.2032 351.643 89.4456C360.583 64.8124 344.872 41.0408 322.07 42.4934ZM267.38 2.58905C285.25 5.06346 295.521 31.2048 288.806 50.3783C282.394 68.6779 262.087 84.8292 249.316 76.6982C271.059 91.0029 308.982 63.1012 301.718 31.1679C298.043 15.0165 284.885 4.37407 267.38 2.58905Z" fill="#FDD8DC"/>
<path fill-rule="evenodd" clip-rule="evenodd" d="M351.654 89.8071C363.157 58.314 334.351 28.1911 301.914 50.2867C310.772 1.98969 251.144 -19.9574 199.889 34.4574C190.746 14.2832 146.428 21.3028 133.566 52.8196C95.4042 39.6307 73.3813 67.6264 90.6968 97.7794C90.6968 97.7794 6.59116 139.603 11.127 176.185C14.0839 200.038 37.6739 201.98 37.6739 201.98C37.6739 201.98 25.6867 239.145 41.3878 257.812C61.607 281.854 91.7023 271.639 91.7023 271.639C91.7023 271.639 94.9489 296.603 127.617 303.51C155.216 309.353 172.585 296.095 172.585 296.095C172.585 296.095 191.344 311.027 225.265 309.844C247.229 309.075 257.844 288.407 257.844 288.407C257.844 288.407 301.239 305.876 323.528 300.128C346.976 294.084 345.055 271.376 345.055 271.376C345.055 271.376 378.272 281.606 403.518 254.908C426.144 230.981 410.68 200.158 410.68 200.158C410.68 200.158 435.352 180.993 432.425 154.809C428.746 121.947 384.44 104.405 351.654 89.8071Z" stroke="black" stroke-width="3.07516" stroke-miterlimit="1.5" stroke-linecap="round" stroke-linejoin="round"/>
<path d="M91.3838 271.728C87.185 256.735 79.775 232.465 59.0059 233.151" stroke="black" stroke-width="3.07516" stroke-miterlimit="1.5" stroke-linecap="round" stroke-linejoin="round"/>
<path d="M133.297 52.5107L129.961 62.4675" stroke="black" stroke-width="3.07763" stroke-miterlimit="1.5" stroke-linecap="round" stroke-linejoin="round"/>
<path d="M199.601 34.3578L189.863 44.2505" stroke="black" stroke-width="3.07763" stroke-miterlimit="1.5" stroke-linecap="round" stroke-linejoin="round"/>
<path d="M37.3799 201.604L41.6024 185.03" stroke="black" stroke-width="3.07763" stroke-miterlimit="1.5" stroke-linecap="round" stroke-linejoin="round"/>
<path d="M365.318 110.47C354.553 116.286 345.787 108.199 351.315 89.7254" stroke="black" stroke-width="3.07763" stroke-miterlimit="1.5" stroke-linecap="round" stroke-linejoin="round"/>
<path d="M257.415 288.502C266.239 272.195 287.438 281.571 287.438 281.571" stroke="black" stroke-width="2.99636" stroke-miterlimit="1.5" stroke-linecap="round" stroke-linejoin="round"/>
<path d="M257.772 168.692C257.772 168.692 276.012 160.244 274.144 132.726C272.779 112.606 256.544 101.499 265.709 81.1121" stroke="black" stroke-width="2.99404" stroke-miterlimit="1.5" stroke-linecap="round" stroke-linejoin="round"/>
<path d="M410.88 200.459C402.424 181.671 388.56 180.046 386.735 168.755C385.206 159.301 391.615 153.954 399.79 154.941" stroke="black" stroke-width="2.99404" stroke-miterlimit="1.5" stroke-linecap="round" stroke-linejoin="round"/>
<path d="M165.812 271.229C143.223 271.836 116.502 262.785 109.467 241.313C103.375 222.716 112.518 203.405 115.006 191.761C116.493 184.793 117.005 176.792 112.465 168.389" stroke="black" stroke-width="2.88035" stroke-miterlimit="1.5" stroke-linecap="round" stroke-linejoin="round"/>
<path d="M112.845 168.904C110.873 165.083 107.799 161.749 103.781 159.429C92.8029 153.091 78.852 156.654 72.6555 167.391C66.4589 178.128 70.3513 191.993 81.3296 198.331C85.0527 200.48 89.122 201.489 93.1171 201.463" stroke="black" stroke-width="3.03681" stroke-miterlimit="1.5" stroke-linecap="round" stroke-linejoin="round"/>
<path d="M94.9276 189.74C90.1176 189.74 86.2184 185.841 86.2184 181.031C86.2184 176.221 90.1176 172.322 94.9276 172.322C99.7375 172.322 103.637 176.221 103.637 181.031C103.637 185.841 99.7375 189.74 94.9276 189.74Z" fill="#F6A8B0"/>
<path d="M301.96 49.8898C292.699 75.1781 262.426 89.8673 246.873 74.4064C233.218 60.829 249.463 35.4632 266.448 44.3841" stroke="black" stroke-width="3.07516" stroke-miterlimit="1.5" stroke-linecap="round" stroke-linejoin="round"/>
<path d="M173.263 216.422C165.095 216.422 158.474 209.801 158.474 201.634C158.474 193.466 165.095 186.845 173.263 186.845C181.43 186.845 188.051 193.466 188.051 201.634C188.051 209.801 181.43 216.422 173.263 216.422Z" fill="#FDD8DC"/>
<path d="M367.953 216.422C359.786 216.422 353.165 209.801 353.165 201.634C353.165 193.466 359.786 186.845 367.953 186.845C376.12 186.845 382.741 193.466 382.741 201.634C382.741 209.801 376.12 216.422 367.953 216.422Z" fill="#FDD8DC"/>
<path fill-rule="evenodd" clip-rule="evenodd" d="M223.391 160.264C226.981 147.82 239.904 144.357 247.801 147.982C255.697 151.607 258.568 162.32 254.977 174.764C252.61 184.01 243.124 195.163 234.873 203.115C223.751 200.354 209.97 195.435 203.286 188.614C193.955 179.633 191.084 168.92 196.11 161.832C201.136 154.744 214.059 151.282 223.391 160.264Z" fill="#F8799B" stroke="black" stroke-width="2.56476" stroke-miterlimit="1.5" stroke-linecap="round" stroke-linejoin="round"/>
<path d="M206.076 177.508C210.517 177.508 214.116 173.908 214.116 169.468C214.116 165.028 210.517 161.428 206.076 161.428C201.636 161.428 198.036 165.028 198.036 169.468C198.036 173.908 201.636 177.508 206.076 177.508Z" fill="#FFD7DC"/>
<path fill-rule="evenodd" clip-rule="evenodd" d="M323.333 160.266C319.74 147.814 306.809 144.349 298.907 147.977C291.006 151.604 288.133 162.324 291.726 174.776C294.094 184.028 303.587 195.188 311.843 203.145C322.972 200.382 336.762 195.46 343.45 188.635C352.787 179.648 355.66 168.928 350.631 161.836C345.601 154.744 332.67 151.279 323.333 160.266Z" fill="#F8799B" stroke="black" stroke-width="2.56639" stroke-miterlimit="1.5" stroke-linecap="round" stroke-linejoin="round"/>
<path d="M304.56 174.794C309.002 174.794 312.604 171.192 312.604 166.75C312.604 162.307 309.002 158.706 304.56 158.706C300.117 158.706 296.516 162.307 296.516 166.75C296.516 171.192 300.117 174.794 304.56 174.794Z" fill="#FFD7DC"/>
<path d="M206.205 139.455L225.626 126.031" stroke="black" stroke-width="10.259" stroke-miterlimit="1.5" stroke-linecap="round" stroke-linejoin="round"/>
<path d="M340.082 139.402L319.432 125.124" stroke="black" stroke-width="10.259" stroke-miterlimit="1.5" stroke-linecap="round" stroke-linejoin="round"/>
<path fill-rule="evenodd" clip-rule="evenodd" d="M271.349 229.026C247.036 228.795 208.276 197.702 197.307 218.533C184.824 242.233 233.494 277.628 271.349 277.992C309.82 278.362 357.653 245.136 343.188 219.932C332.847 201.92 298.74 229.292 271.349 229.026Z" fill="#EF8694" stroke="black" stroke-width="2.55254" stroke-miterlimit="1.5" stroke-linecap="round" stroke-linejoin="round"/>
<path fill-rule="evenodd" clip-rule="evenodd" d="M217.101 212.259C216.787 225.166 241.217 241.108 271.089 241.336C302.013 241.57 322.978 227.727 323.95 214.85C308.932 218.235 288.761 229.278 271.317 229.112C255.479 228.958 233.523 215.718 217.101 212.259Z" fill="white" stroke="black" stroke-width="2.56675" stroke-miterlimit="1.5" stroke-linecap="round" stroke-linejoin="round"/>
<path fill-rule="evenodd" clip-rule="evenodd" d="M246.595 273.723C248.521 264.428 259.583 254.167 273.481 262.575C288.968 255.023 297.998 265.038 299.98 273.261C290.63 276.492 280.812 278.351 271.542 278.265C263.485 278.185 254.941 276.523 246.595 273.723Z" fill="#FDAFB7" stroke="black" stroke-width="2.56675" stroke-miterlimit="1.5" stroke-linecap="round" stroke-linejoin="round"/>
<path fill-rule="evenodd" clip-rule="evenodd" d="M268.249 195.233C286.469 182.408 300.235 191.166 309.046 202.921C317.779 214.575 334.766 209.905 338.035 197.588C342.352 219.092 324.186 240.219 304.614 235.726C282.26 230.595 274.09 211.03 268.249 195.233Z" fill="#545876" stroke="black" stroke-width="3.01792" stroke-miterlimit="1.5" stroke-linecap="round" stroke-linejoin="round"/>
<path fill-rule="evenodd" clip-rule="evenodd" d="M280.088 190.737C259.776 181.581 247.909 192.78 241.475 205.987C235.099 219.079 217.535 217.699 212.001 206.22C211.82 228.153 233.647 245.471 252.018 237.365C273.003 228.108 277.333 207.352 280.088 190.737Z" fill="#545876" stroke="black" stroke-width="3.01793" stroke-miterlimit="1.5" stroke-linecap="round" stroke-linejoin="round"/>
<path d="M318.571 218.618C344.038 218.618 364.683 198.705 364.683 174.141C364.683 149.577 344.038 129.664 318.571 129.664C293.105 129.664 272.46 149.577 272.46 174.141C272.46 198.705 293.105 218.618 318.571 218.618Z" fill="#C4EEFC" fill-opacity="0.25"/>
<path d="M318.571 218.618C344.038 218.618 364.683 198.705 364.683 174.141C364.683 149.577 344.038 129.664 318.571 129.664C293.105 129.664 272.46 149.577 272.46 174.141C272.46 198.705 293.105 218.618 318.571 218.618Z" stroke="black" stroke-width="3.07652" stroke-miterlimit="1.5" stroke-linecap="round" stroke-linejoin="round"/>
<path d="M364.743 172.324C364.743 172.324 354.679 291.508 381.965 306.625C397.655 315.316 409.018 291.668 391.9 264.025" stroke="black" stroke-width="3.07763" stroke-miterlimit="1.5" stroke-linecap="round" stroke-linejoin="round"/>
<path fill-rule="evenodd" clip-rule="evenodd" d="M260.466 293.854C260.466 293.854 236.59 289.126 220.685 285.975C217.465 285.341 214.129 286.289 211.729 288.529C209.322 290.77 208.14 294.026 208.553 297.288C209.857 307.666 211.636 321.866 213.034 332.995C213.489 336.62 215.847 339.722 219.207 341.144C222.574 342.56 226.44 342.08 229.351 339.882C244.604 328.36 266.757 311.63 266.757 311.63L260.466 293.854Z" fill="#545876" stroke="black" stroke-width="3.07763" stroke-miterlimit="1.5" stroke-linecap="round" stroke-linejoin="round"/>
<path fill-rule="evenodd" clip-rule="evenodd" d="M283.57 293.78C283.57 293.78 308.339 288.53 324.552 285.095C327.759 284.418 331.089 285.31 333.526 287.502C335.958 289.693 337.189 292.918 336.85 296.174C335.785 306.306 334.339 320.038 333.212 330.717C332.843 334.257 330.658 337.347 327.445 338.879C324.232 340.412 320.459 340.166 317.473 338.227C302.793 328.705 281.828 315.108 281.828 315.108L283.57 293.78Z" fill="#545876" stroke="black" stroke-width="3.07763" stroke-miterlimit="1.5" stroke-linecap="round" stroke-linejoin="round"/>
<path fill-rule="evenodd" clip-rule="evenodd" d="M293.703 303.663C293.703 292.793 284.877 283.966 274.006 283.966C263.136 283.966 254.31 292.793 254.31 303.663V307.818C254.31 318.688 263.136 327.514 274.006 327.514C284.877 327.514 293.703 318.688 293.703 307.818V303.663Z" fill="#545876" stroke="black" stroke-width="3.07763" stroke-miterlimit="1.5" stroke-linecap="round" stroke-linejoin="round"/>
<g clip-path="url(#clip0_1427_12926)">
<path fill-rule="evenodd" clip-rule="evenodd" d="M359.187 235.592C361.32 223.44 372.886 213.574 385.002 213.574H448.164C460.271 213.574 468.374 223.44 466.24 235.592L441.611 375.892C439.478 388.044 427.911 397.91 415.804 397.91H352.643C340.527 397.91 332.424 388.044 334.557 375.892L359.187 235.592Z" fill="#C7C8DD" stroke="black" stroke-width="2.5" stroke-miterlimit="1.5" stroke-linecap="round" stroke-linejoin="round"/>
<path fill-rule="evenodd" clip-rule="evenodd" d="M462.218 258.551C462.445 257.258 463.676 256.209 464.964 256.209H469.633C470.921 256.209 471.783 257.258 471.556 258.551L468.473 276.114C468.246 277.406 467.016 278.456 465.727 278.456H461.059C459.77 278.456 458.908 277.406 459.135 276.114L462.218 258.551Z" fill="#67697F" stroke="black" stroke-width="2" stroke-miterlimit="1.5" stroke-linecap="round" stroke-linejoin="round"/>
<path fill-rule="evenodd" clip-rule="evenodd" d="M366.347 240.098C368.32 228.861 379.014 219.738 390.215 219.738H454.275C465.476 219.738 472.968 228.861 470.995 240.098L446.098 381.925C444.125 393.162 433.431 402.285 422.229 402.285H358.17C346.968 402.285 339.477 393.162 341.45 381.925L366.347 240.098Z" fill="#D9DAE8" stroke="black" stroke-width="2.5" stroke-miterlimit="1.5" stroke-linecap="round" stroke-linejoin="round"/>
<path d="M387.44 248.983C382.786 248.983 379.678 245.196 380.498 240.525C381.318 235.853 385.756 232.066 390.41 232.066C395.063 232.066 398.171 235.853 397.351 240.525C396.531 245.196 392.094 248.983 387.44 248.983Z" fill="#545679" stroke="black" stroke-width="2" stroke-miterlimit="1.5" stroke-linecap="round" stroke-linejoin="round"/>
</g>
<defs>
<clipPath id="clip0_1427_12926">
<rect width="144" height="191" fill="white" transform="matrix(-1 0 0 1 475 212.5)"/>
</clipPath>
</defs>
</svg>
