<svg width="648" height="675" viewBox="0 0 648 675" fill="none" xmlns="http://www.w3.org/2000/svg">
<path fill-rule="evenodd" clip-rule="evenodd" d="M206.441 258.451C203.842 253.822 199.904 249.84 194.844 247.151C181.021 239.805 163.959 244.807 156.777 258.326C149.595 271.845 154.999 288.788 168.822 296.134C173.51 298.625 178.576 299.693 183.505 299.488" fill="#FFC2C8"/>
<path d="M206.441 258.451C203.842 253.822 199.904 249.84 194.844 247.151C181.021 239.805 163.959 244.807 156.777 258.326C149.595 271.845 154.999 288.788 168.822 296.134C173.51 298.625 178.576 299.693 183.505 299.488" stroke="black" stroke-width="3.75009" stroke-miterlimit="1.5" stroke-linecap="round" stroke-linejoin="round"/>
<path d="M184.725 285.5C178.789 285.708 173.807 281.065 173.599 275.129C173.391 269.193 178.034 264.212 183.97 264.003C189.906 263.795 194.887 268.438 195.095 274.374C195.304 280.31 190.661 285.291 184.725 285.5Z" fill="#F792AF"/>
<path fill-rule="evenodd" clip-rule="evenodd" d="M201.89 161.154C186.33 122.787 220.574 84.3631 261.563 110.226C248.537 51.0056 321.174 21.3361 386.787 86.2689C397.196 60.9754 452.193 67.7178 469.433 106.056C515.957 88.1252 544.349 121.721 524.287 159.683C524.287 159.683 629.896 207.653 625.883 252.997C623.268 282.561 594.239 285.981 594.239 285.981C594.239 285.981 610.644 331.328 592.076 355.045C568.165 385.592 530.581 374.29 530.581 374.29C530.581 374.29 527.656 405.239 487.64 415.179C453.832 423.586 431.822 407.976 431.822 407.976C431.822 407.976 409.319 427.217 367.405 427.228C340.266 427.231 326.27 402.184 326.27 402.184C326.27 402.184 273.472 425.623 245.716 419.495C216.516 413.053 217.904 384.946 217.904 384.946C217.904 384.946 177.353 399.01 145.039 367.156C116.079 338.608 133.828 299.898 133.828 299.898C133.828 299.898 102.549 277.316 105.027 244.874C108.142 204.16 162.061 180.59 201.89 161.154Z" fill="#F6C4C9" stroke="black" stroke-width="3.79744" stroke-miterlimit="1.5" stroke-linecap="round" stroke-linejoin="round"/>
<path fill-rule="evenodd" clip-rule="evenodd" d="M198.008 162.586C166.822 179.098 128.189 206.937 125.917 236.664C123.443 269.105 148.054 281.84 148.054 281.84C148.054 281.84 131.021 321.576 159.981 350.123C192.296 381.974 228.964 375.567 228.964 375.567C228.964 375.567 237.087 402.343 274.754 411.539C302.369 418.273 325.99 401.868 325.99 401.868C325.99 401.868 273.192 425.299 245.436 419.178C216.232 412.727 217.622 384.621 217.622 384.621C217.622 384.621 177.068 398.693 144.756 366.835C115.795 338.288 133.549 299.576 133.549 299.576C133.549 299.576 102.265 276.99 104.746 244.549C107.762 205.053 158.602 181.691 198.008 162.586ZM236.027 101.493C217.542 101.077 205.91 127.703 209.605 152.223C211.619 165.583 212.842 182.851 198.876 187.319C208.313 179.435 202.92 164.079 201.566 160.719C189.465 130.706 207.824 100.688 236.027 101.493ZM301.791 49.8761C279.845 53.7043 268.302 86.4108 277.421 109.782C286.126 132.088 311.888 151.141 327.296 140.553C301.083 159.149 253.072 126.358 260.653 86.6339C264.488 66.542 280.266 52.8377 301.791 49.8761Z" fill="#FDD8DC"/>
<path fill-rule="evenodd" clip-rule="evenodd" d="M201.89 161.154C186.33 122.787 220.574 84.3631 261.563 110.226C248.537 51.0056 321.174 21.3361 386.787 86.2689C397.196 60.9754 452.193 67.7178 469.433 106.056C515.957 88.1252 544.349 121.721 524.287 159.683C524.287 159.683 629.896 207.653 625.883 252.997C623.268 282.561 594.239 285.981 594.239 285.981C594.239 285.981 610.644 331.328 592.076 355.045C568.165 385.592 530.581 374.29 530.581 374.29C530.581 374.29 527.656 405.239 487.64 415.179C453.832 423.586 431.822 407.976 431.822 407.976C431.822 407.976 409.319 427.217 367.405 427.228C340.266 427.231 326.27 402.184 326.27 402.184C326.27 402.184 273.472 425.623 245.716 419.495C216.516 413.053 217.904 384.946 217.904 384.946C217.904 384.946 177.353 399.01 145.039 367.156C116.079 338.608 133.828 299.898 133.828 299.898C133.828 299.898 102.549 277.316 105.027 244.874C108.142 204.16 162.061 180.59 201.89 161.154Z" stroke="black" stroke-width="3.79744" stroke-miterlimit="1.5" stroke-linecap="round" stroke-linejoin="round"/>
<path d="M530.434 374.932C534.966 356.248 543.059 325.974 568.72 325.92" stroke="black" stroke-width="3.79744" stroke-miterlimit="1.5" stroke-linecap="round" stroke-linejoin="round"/>
<path d="M469.323 106.642L473.872 118.785" stroke="black" stroke-width="3.80049" stroke-miterlimit="1.5" stroke-linecap="round" stroke-linejoin="round"/>
<path d="M387.03 86.3283L399.477 98.115" stroke="black" stroke-width="3.80049" stroke-miterlimit="1.5" stroke-linecap="round" stroke-linejoin="round"/>
<path d="M594.03 286.326L588.1 266.053" stroke="black" stroke-width="3.80049" stroke-miterlimit="1.5" stroke-linecap="round" stroke-linejoin="round"/>
<path d="M185.396 187.491C198.934 194.202 209.401 183.842 201.779 161.283" stroke="black" stroke-width="3.80049" stroke-miterlimit="1.5" stroke-linecap="round" stroke-linejoin="round"/>
<path d="M326.025 401.715C310.471 377.547 289.036 389.08 289.036 389.08" stroke="black" stroke-width="3.70014" stroke-miterlimit="1.5" stroke-linecap="round" stroke-linejoin="round"/>
<path d="M331.403 254.185C331.403 254.185 312.342 244.416 313.064 210.388C313.592 185.509 329.749 171.218 319.472 146.387" stroke="black" stroke-width="3.77843" stroke-miterlimit="1.5" stroke-linecap="round" stroke-linejoin="round"/>
<path d="M133.367 300.585C142.988 277.032 160.028 274.426 161.791 260.412C163.268 248.679 155.126 242.357 145.08 243.931" stroke="black" stroke-width="3.69726" stroke-miterlimit="1.5" stroke-linecap="round" stroke-linejoin="round"/>
<path d="M438.888 377.993C466.793 377.764 499.377 365.435 507.129 338.631C513.841 315.417 501.721 291.981 498.146 277.718C496.008 269.184 495.029 259.332 500.268 248.765" stroke="black" stroke-width="3.55687" stroke-miterlimit="1.5" stroke-linecap="round" stroke-linejoin="round"/>
<path d="M500.736 248.116C503.004 243.316 506.653 239.068 511.511 236.031C524.785 227.733 542.156 231.526 550.269 244.508C558.382 257.49 554.179 274.769 540.905 283.067C536.403 285.881 531.425 287.302 526.494 287.443" stroke="black" stroke-width="3.75009" stroke-miterlimit="1.5" stroke-linecap="round" stroke-linejoin="round"/>
<path d="M524.296 273.574C530.232 273.366 534.875 268.384 534.667 262.448C534.458 256.512 529.477 251.869 523.541 252.078C517.605 252.286 512.962 257.267 513.17 263.203C513.379 269.139 518.36 273.782 524.296 273.574Z" fill="#F6A8B0"/>
<path d="M261.844 110.265C274.369 141.073 312.365 157.889 330.89 138.134C347.153 120.786 326.005 90.186 305.431 101.932" stroke="black" stroke-width="3.79744" stroke-miterlimit="1.5" stroke-linecap="round" stroke-linejoin="round"/>
<path fill-rule="evenodd" clip-rule="evenodd" d="M331.826 333.567C347.531 333.016 360.033 325.333 360.584 341.03C361.135 356.727 348.827 369.924 333.122 370.475C317.41 371.027 304.213 358.726 303.661 343.029C303.11 327.332 316.114 334.119 331.826 333.567Z" fill="#EF8694" stroke="black" stroke-width="3.79829" stroke-miterlimit="1.5" stroke-linecap="round" stroke-linejoin="round"/>
<path fill-rule="evenodd" clip-rule="evenodd" d="M321.965 368.673C324.961 363.065 330.589 358.317 337.823 356.009C344.55 353.865 351.36 354.245 356.849 356.586C352.069 364.679 343.394 370.242 333.307 370.596C329.308 370.737 325.469 370.044 321.965 368.673Z" fill="#FDAFB7" stroke="black" stroke-width="3.79744" stroke-miterlimit="1.5" stroke-linecap="round" stroke-linejoin="round"/>
<path fill-rule="evenodd" clip-rule="evenodd" d="M303.602 341.343C304.041 327.836 316.654 334.101 331.769 333.57C346.884 333.04 359.027 325.905 360.419 339.348C360.393 340.265 360.323 341.173 360.215 342.069C353.758 346.93 343.725 350.252 332.369 350.651C321.013 351.049 310.771 348.44 303.996 344.043C303.819 343.157 303.693 342.256 303.602 341.343Z" fill="white" stroke="black" stroke-width="3.79744" stroke-miterlimit="1.5" stroke-linecap="round" stroke-linejoin="round"/>
<path d="M440.185 324.035C450.265 323.681 458.149 315.224 457.795 305.144C457.441 295.065 448.983 287.181 438.904 287.535C428.824 287.889 420.94 296.347 421.294 306.426C421.648 316.505 430.106 324.389 440.185 324.035Z" fill="#FDD8DC"/>
<path d="M221.265 334.044C231.345 333.69 239.229 325.232 238.875 315.153C238.521 305.073 230.063 297.189 219.984 297.543C209.904 297.897 202.02 306.355 202.374 316.435C202.728 326.514 211.186 334.398 221.265 334.044Z" fill="#FDD8DC"/>
<path fill-rule="evenodd" clip-rule="evenodd" d="M352.466 407.279C352.466 407.279 381.727 400.411 401.219 395.832C405.165 394.91 409.323 395.935 412.383 398.596C415.45 401.257 417.05 405.224 416.682 409.268C415.521 422.132 413.942 439.734 412.699 453.528C412.294 458.022 409.519 461.953 405.434 463.853C401.34 465.746 396.548 465.321 392.86 462.736C373.537 449.176 345.473 429.49 345.473 429.49L352.466 407.279Z" fill="#545876" stroke="black" stroke-width="3.80049" stroke-miterlimit="1.5" stroke-linecap="round" stroke-linejoin="round"/>
<path fill-rule="evenodd" clip-rule="evenodd" d="M324.284 408.14C324.284 408.14 293.489 402.734 273.331 399.198C269.344 398.502 265.273 399.747 262.36 402.557C259.455 405.367 258.075 409.401 258.634 413.404C260.387 425.862 262.768 442.746 264.621 455.877C265.23 460.229 268.06 463.948 272.092 465.7C276.124 467.452 280.77 466.985 284.37 464.462C302.074 452.075 327.358 434.386 327.358 434.386L324.284 408.14Z" fill="#545876" stroke="black" stroke-width="3.80049" stroke-miterlimit="1.5" stroke-linecap="round" stroke-linejoin="round"/>
<path fill-rule="evenodd" clip-rule="evenodd" d="M312.242 420.736C311.771 407.321 322.282 396.045 335.697 395.574C349.112 395.103 360.387 405.614 360.859 419.029L361.039 424.156C361.51 437.571 350.999 448.847 337.584 449.318C324.169 449.789 312.893 439.278 312.422 425.863L312.242 420.736Z" fill="#545876" stroke="black" stroke-width="3.80049" stroke-miterlimit="1.5" stroke-linecap="round" stroke-linejoin="round"/>
<path d="M279.681 287.359C288.01 287.066 294.524 280.078 294.232 271.749C293.939 263.421 286.951 256.906 278.622 257.199C270.294 257.491 263.779 264.48 264.072 272.809C264.364 281.137 271.353 287.651 279.681 287.359Z" fill="#545876" stroke="black" stroke-width="3.80062" stroke-miterlimit="1.5" stroke-linecap="round" stroke-linejoin="round"/>
<path d="M372.182 304.869C387.039 304.347 398.592 289.938 397.986 272.684C397.38 255.431 384.845 241.867 369.987 242.389C355.13 242.91 343.577 257.32 344.183 274.573C344.789 291.827 357.324 305.391 372.182 304.869Z" fill="white" stroke="black" stroke-width="3.77099" stroke-miterlimit="1.5" stroke-linecap="round" stroke-linejoin="round"/>
<path d="M373.599 290.68C383.114 290.346 390.556 282.362 390.221 272.848C389.887 263.334 381.904 255.892 372.389 256.226C362.875 256.56 355.433 264.544 355.767 274.058C356.101 283.572 364.085 291.014 373.599 290.68Z" fill="#46ACEC" stroke="black" stroke-width="3.80308" stroke-miterlimit="1.5" stroke-linecap="round" stroke-linejoin="round"/>
<path d="M364.282 272.489C369.009 272.323 372.706 268.357 372.54 263.63C372.374 258.903 368.407 255.206 363.681 255.372C358.954 255.538 355.257 259.504 355.423 264.231C355.589 268.958 359.555 272.655 364.282 272.489Z" fill="white"/>
<path fill-rule="evenodd" clip-rule="evenodd" d="M345.584 283.851L396.653 282.058C393.533 294.601 383.753 303.923 371.869 304.34C359.986 304.758 349.576 296.144 345.584 283.851Z" fill="#F9C3C8" stroke="black" stroke-width="3.77622" stroke-miterlimit="1.5" stroke-linecap="round" stroke-linejoin="round"/>
<path d="M284.698 307.941C299.555 307.419 311.108 293.01 310.503 275.756C309.897 258.503 297.361 244.939 282.504 245.461C267.647 245.983 256.094 260.392 256.7 277.646C257.306 294.899 269.841 308.463 284.698 307.941Z" fill="white" stroke="black" stroke-width="3.77099" stroke-miterlimit="1.5" stroke-linecap="round" stroke-linejoin="round"/>
<path d="M286.115 293.752C295.629 293.418 303.071 285.434 302.737 275.92C302.403 266.406 294.419 258.964 284.905 259.298C275.391 259.632 267.949 267.616 268.283 277.13C268.617 286.644 276.601 294.086 286.115 293.752Z" fill="#46ACEC" stroke="black" stroke-width="3.80308" stroke-miterlimit="1.5" stroke-linecap="round" stroke-linejoin="round"/>
<path d="M276.797 275.561C281.524 275.395 285.221 271.429 285.055 266.702C284.889 261.975 280.923 258.278 276.196 258.444C271.469 258.61 267.772 262.576 267.938 267.303C268.104 272.03 272.071 275.727 276.797 275.561Z" fill="white"/>
<path fill-rule="evenodd" clip-rule="evenodd" d="M258.101 286.924L309.17 285.13C306.049 297.673 296.27 306.995 284.386 307.413C272.502 307.83 262.093 299.216 258.101 286.924Z" fill="#F9C3C8" stroke="black" stroke-width="3.77622" stroke-miterlimit="1.5" stroke-linecap="round" stroke-linejoin="round"/>
<path d="M361.018 225.301L394.189 229.881" stroke="black" stroke-width="12.664" stroke-miterlimit="1.5" stroke-linecap="round" stroke-linejoin="round"/>
<path d="M262.208 203.247C273.9 199.23 286.069 201.094 298.546 206.672" stroke="black" stroke-width="12.6647" stroke-miterlimit="1.5" stroke-linecap="round" stroke-linejoin="round"/>
<path fill-rule="evenodd" clip-rule="evenodd" d="M334.16 294.046C307.319 288.001 295.737 304.489 291.225 322.06C286.755 339.478 265.164 342.158 255.626 329.643C260.84 356.221 291.536 371.767 311.753 357.409C334.847 341.012 334.943 314.829 334.16 294.046Z" fill="#545876" stroke="black" stroke-width="3.72677" stroke-miterlimit="1.5" stroke-linecap="round" stroke-linejoin="round"/>
<path fill-rule="evenodd" clip-rule="evenodd" d="M324.263 294.393C350.614 286.48 363.323 302.115 369.058 319.326C374.738 336.388 396.464 337.547 405.101 324.394C401.764 351.272 372.234 368.932 351.059 356.028C326.873 341.291 324.939 315.18 324.263 294.393Z" fill="#545876" stroke="black" stroke-width="3.72677" stroke-miterlimit="1.5" stroke-linecap="round" stroke-linejoin="round"/>
<path d="M272.878 329.03C241.449 330.133 215.108 306.453 214.044 276.138C212.979 245.824 237.594 220.354 269.023 219.25C300.452 218.147 326.793 241.827 327.857 272.142C328.922 302.456 304.307 327.926 272.878 329.03Z" fill="#C4EEFC" fill-opacity="0.25"/>
<path d="M272.878 329.03C241.449 330.133 215.108 306.453 214.044 276.138C212.979 245.824 237.594 220.354 269.023 219.25C300.452 218.147 326.793 241.827 327.857 272.142C328.922 302.456 304.307 327.926 272.878 329.03Z" stroke="black" stroke-width="3.79913" stroke-miterlimit="1.5" stroke-linecap="round" stroke-linejoin="round"/>
<path d="M214.39 274.536C214.39 274.536 218.715 408.32 219.919 431.118C220.617 450.974 240.397 450.272 239.966 430.414C239.764 420.982 238.384 385.383 238.384 385.383" stroke="black" stroke-width="3.80049" stroke-miterlimit="1.5" stroke-linecap="round" stroke-linejoin="round"/>
<g clip-path="url(#clip0_1643_2)">
<path fill-rule="evenodd" clip-rule="evenodd" d="M420.911 553.926C420.911 558.319 417.552 561.879 413.41 561.879C393.102 561.879 83.4381 561.879 63.1302 561.879C58.9879 561.879 55.6299 558.319 55.6299 553.926C55.6299 549.964 55.6299 538.752 55.6299 538.752H420.911C420.911 538.752 420.911 549.964 420.911 553.926Z" fill="#D9DAE8" stroke="black" stroke-width="3.15913" stroke-miterlimit="1.5" stroke-linecap="round" stroke-linejoin="round"/>
<path fill-rule="evenodd" clip-rule="evenodd" d="M372 533.095C372 531.386 370.734 530 369.172 530C361.517 530 88.4831 530 80.8274 530C79.2658 530 78 531.386 78 533.095C78 534.637 78 539 78 539H372C372 539 372 534.637 372 533.095Z" fill="#545876" stroke="black" stroke-width="2.06081" stroke-miterlimit="1.5" stroke-linecap="round" stroke-linejoin="round"/>
<path fill-rule="evenodd" clip-rule="evenodd" d="M430.638 553.926C430.638 558.319 426.99 561.879 422.489 561.879C400.425 561.879 339.702 561.879 317.637 561.879C313.136 561.879 309.488 558.319 309.488 553.926C309.488 549.964 309.488 538.752 309.488 538.752H430.638C430.638 538.752 430.638 549.964 430.638 553.926Z" fill="#C7C8DD" stroke="black" stroke-width="3.15913" stroke-miterlimit="1.5" stroke-linecap="round" stroke-linejoin="round"/>
<path fill-rule="evenodd" clip-rule="evenodd" d="M338.181 550.582C338.181 548.772 336.796 547.299 335.086 547.299H327.276C325.566 547.299 324.181 548.772 324.181 550.582C324.181 552.391 325.566 553.864 327.276 553.864H335.086C336.796 553.864 338.181 552.391 338.181 550.582Z" fill="#545876" stroke="black" stroke-width="1.48872" stroke-miterlimit="1.5" stroke-linecap="round" stroke-linejoin="round"/>
<path fill-rule="evenodd" clip-rule="evenodd" d="M356.956 550.582C356.956 548.772 355.571 547.299 353.861 547.299H346.05C344.34 547.299 342.955 548.772 342.955 550.582C342.955 552.391 344.34 553.864 346.05 553.864H353.861C355.571 553.864 356.956 552.391 356.956 550.582Z" fill="#545876" stroke="black" stroke-width="1.48872" stroke-miterlimit="1.5" stroke-linecap="round" stroke-linejoin="round"/>
<path fill-rule="evenodd" clip-rule="evenodd" d="M292.324 378.871C290.837 369.024 281.283 361.031 271.029 361.031H37.6052C27.3285 361.031 20.2109 369.024 21.6977 378.871L43.8239 525.409C45.3106 535.255 54.8423 543.25 65.119 543.25H298.542C308.797 543.25 315.937 535.255 314.45 525.409L292.324 378.871Z" fill="#D9DAE8" stroke="black" stroke-width="3.29076" stroke-miterlimit="1.5" stroke-linecap="round" stroke-linejoin="round"/>
<path opacity="0.3" d="M168.393 473.579C178.995 473.579 186.3 465.082 184.709 454.6C183.119 444.118 173.235 435.621 162.634 435.621C152.032 435.621 144.727 444.118 146.317 454.6C147.908 465.082 157.791 473.579 168.393 473.579Z" fill="white"/>
</g>
<defs>
<clipPath id="clip0_1643_2">
<rect width="417.927" height="443.156" fill="white" transform="translate(14 231.594)"/>
</clipPath>
</defs>
</svg>
