<svg width="337" height="150" viewBox="0 0 337 150" fill="none" xmlns="http://www.w3.org/2000/svg">
<path d="M134.993 79.9469C153.908 81.9984 158.005 69.6463 157.93 64.224C157.788 54.0933 150.622 46.8715 150.622 46.8715" stroke="black" stroke-width="1.93015" stroke-miterlimit="1.5" stroke-linecap="round" stroke-linejoin="round"/>
<path fill-rule="evenodd" clip-rule="evenodd" d="M114.827 68.8681C115.381 67.5827 116.305 66.4306 117.558 65.5868C120.982 63.2813 125.593 64.1253 127.847 67.4737C130.101 70.8221 129.148 75.4133 125.725 77.7188C124.564 78.5006 123.265 78.9196 121.966 79.001" fill="#FFC2C8"/>
<path d="M114.827 68.8681C115.381 67.5827 116.305 66.4306 117.558 65.5868C120.982 63.2813 125.593 64.1253 127.847 67.4737C130.101 70.8221 129.148 75.4133 125.725 77.7188C124.564 78.5006 123.265 78.9196 121.966 79.001" stroke="black" stroke-width="1.2012" stroke-miterlimit="1.5" stroke-linecap="round" stroke-linejoin="round"/>
<path d="M121.044 75.3823C122.606 75.2742 123.785 73.92 123.677 72.3576C123.569 70.7953 122.215 69.6163 120.652 69.7244C119.09 69.8324 117.911 71.1866 118.019 72.749C118.127 74.3114 119.481 75.4903 121.044 75.3823Z" fill="#F792AF"/>
<path fill-rule="evenodd" clip-rule="evenodd" d="M113.204 43.1497C116.232 32.6615 106.199 23.524 96.1587 31.43C97.9511 15.5429 78.0892 9.75362 62.663 28.5805C59.2399 22.2329 45.0021 25.5087 41.5322 36.0352C28.84 32.6085 22.3154 42.197 28.6174 51.6025C28.6174 51.6025 2.23755 67.0774 4.53284 78.8584C6.02921 86.5399 13.7355 86.6409 13.7355 86.6409C13.7355 86.6409 10.6767 98.9824 16.1962 104.693C23.3041 112.048 32.8503 108.054 32.8503 108.054C32.8503 108.054 34.4658 116.09 45.2322 117.6C54.3285 118.878 59.6724 114.181 59.6724 114.181C59.6724 114.181 66.1011 118.609 77.0931 117.463C84.2101 116.72 87.1939 109.768 87.1939 109.768C87.1939 109.768 101.682 114.467 108.793 112.099C116.274 109.609 115.139 102.276 115.139 102.276C115.139 102.276 126.159 104.853 133.76 95.6136C140.572 87.3332 134.856 77.6685 134.856 77.6685C134.856 77.6685 142.439 70.8888 140.9 62.4492C138.967 51.8576 124.181 47.1547 113.204 43.1497Z" fill="#FFC2C8" stroke="black" stroke-width="1.21501" stroke-miterlimit="1.5" stroke-linecap="round" stroke-linejoin="round"/>
<path fill-rule="evenodd" clip-rule="evenodd" d="M114.186 43.3807C122.817 46.8558 133.712 53.0974 135.123 60.8307C136.661 69.2704 130.556 73.2847 130.556 73.2847C130.556 73.2847 136.112 83.2384 129.3 91.5183C121.699 100.757 111.907 100.082 111.907 100.082C111.907 100.082 110.511 107.327 100.886 110.771C93.8283 113.294 87.1842 109.639 87.1842 109.639C87.1842 109.639 101.672 114.336 108.783 111.97C116.265 109.478 115.13 102.145 115.13 102.145C115.13 102.145 126.151 104.724 133.751 95.4835C140.563 87.2036 134.846 77.5382 134.846 77.5382C134.846 77.5382 142.431 70.7577 140.891 62.3181C139.017 52.0434 125.044 47.3105 114.186 43.3807ZM102.541 28.4018C107.377 27.7861 111.158 34.4494 110.861 40.981C110.699 44.54 110.852 49.1018 114.637 49.8907C111.946 48.0819 112.939 43.9069 113.202 42.9887C115.553 34.7863 109.915 27.4177 102.541 28.4018ZM83.8803 16.6686C89.7405 17.0709 93.664 25.3315 91.9135 31.7104C90.2421 37.7986 84.0086 43.5013 79.6778 41.147C87.0616 45.3051 98.7531 35.3899 95.6761 25.1803C94.1196 20.0164 89.6062 16.8551 83.8803 16.6686Z" fill="#FDD8DC"/>
<path fill-rule="evenodd" clip-rule="evenodd" d="M113.204 43.1497C116.232 32.6615 106.199 23.524 96.1587 31.43C97.9511 15.5429 78.0892 9.75362 62.663 28.5805C59.2399 22.2329 45.0021 25.5087 41.5322 36.0352C28.84 32.6085 22.3154 42.197 28.6174 51.6025C28.6174 51.6025 2.23755 67.0774 4.53284 78.8584C6.02922 86.5399 13.7355 86.6409 13.7355 86.6409C13.7355 86.6409 10.6768 98.9824 16.1962 104.693C23.3041 112.048 32.8503 108.054 32.8503 108.054C32.8503 108.054 34.4658 116.09 45.2322 117.6C54.3285 118.878 59.6724 114.181 59.6724 114.181C59.6724 114.181 66.1011 118.609 77.0931 117.463C84.2101 116.72 87.1939 109.768 87.1939 109.768C87.1939 109.768 101.682 114.467 108.793 112.099C116.274 109.609 115.139 102.276 115.139 102.276C115.139 102.276 126.159 104.853 133.76 95.6136C140.572 87.3332 134.856 77.6685 134.856 77.6685C134.856 77.6685 142.439 70.8888 140.9 62.4492C138.967 51.8576 124.181 47.1547 113.204 43.1497Z" stroke="black" stroke-width="1.21501" stroke-miterlimit="1.5" stroke-linecap="round" stroke-linejoin="round"/>
<path d="M32.8446 107.852C31.1439 103.077 28.1917 95.3596 21.4607 96.0488" stroke="black" stroke-width="1.21501" stroke-miterlimit="1.5" stroke-linecap="round" stroke-linejoin="round"/>
<path d="M41.5065 35.8016L40.6466 39.1108" stroke="black" stroke-width="1.21652" stroke-miterlimit="1.5" stroke-linecap="round" stroke-linejoin="round"/>
<path d="M62.6308 28.5477L59.69 31.9799" stroke="black" stroke-width="1.21652" stroke-miterlimit="1.5" stroke-linecap="round" stroke-linejoin="round"/>
<path d="M13.7552 86.5413L14.7544 81.0625" stroke="black" stroke-width="1.21652" stroke-miterlimit="1.5" stroke-linecap="round" stroke-linejoin="round"/>
<path d="M118.234 49.334C114.867 51.4651 111.839 49.035 113.219 42.9103" stroke="black" stroke-width="1.21652" stroke-miterlimit="1.5" stroke-linecap="round" stroke-linejoin="round"/>
<path d="M87.1516 109.722C90.5679 102.958 96.5054 105.395 96.5054 105.395" stroke="black" stroke-width="1.18247" stroke-miterlimit="1.5" stroke-linecap="round" stroke-linejoin="round"/>
<path d="M81.7231 71.0385C81.7231 71.0385 86.4536 67.954 85.3315 59.0503C84.5112 52.5405 79.8823 49.2355 81.8965 42.4423" stroke="black" stroke-width="1.20947" stroke-miterlimit="1.5" stroke-linecap="round" stroke-linejoin="round"/>
<path d="M134.99 77.8741C131.822 71.9613 127.281 71.7451 126.435 68.1183C125.726 65.0819 127.688 63.2009 130.365 63.3381" stroke="black" stroke-width="1.18237" stroke-miterlimit="1.5" stroke-linecap="round" stroke-linejoin="round"/>
<path d="M56.9281 106.289C49.6041 106.994 40.7211 104.654 37.9535 97.8375C35.5568 91.9339 38.0928 85.4556 38.6392 81.6173C38.9659 79.3207 38.9525 76.7102 37.2889 74.0828" stroke="black" stroke-width="1.13803" stroke-miterlimit="1.5" stroke-linecap="round" stroke-linejoin="round"/>
<path d="M37.2198 74.2391C36.4935 73.0424 35.4201 72.0284 34.0628 71.3651C30.3543 69.5529 25.9028 71.0238 24.1313 74.6506C22.3597 78.2775 23.9356 82.6938 27.644 84.5059C28.9016 85.1205 30.2461 85.3566 31.5432 85.2585" stroke="black" stroke-width="1.2012" stroke-miterlimit="1.5" stroke-linecap="round" stroke-linejoin="round"/>
<path d="M31.8612 81.5325C30.2988 81.6406 28.9447 80.4616 28.8366 78.8993C28.7285 77.3369 29.9075 75.9827 31.4699 75.8746C33.0323 75.7666 34.3864 76.9455 34.4945 78.5079C34.6026 80.0703 33.4236 81.4245 31.8612 81.5325Z" fill="#F6A8B0"/>
<path d="M96.1196 31.4663C93.6795 39.8887 84.1763 45.3403 78.7769 40.6676C74.0364 36.5641 78.7432 27.9596 84.4606 30.4758" stroke="black" stroke-width="1.21501" stroke-miterlimit="1.5" stroke-linecap="round" stroke-linejoin="round"/>
<path d="M106.103 78.2735C104.272 78.4001 102.686 77.0187 102.559 75.1882C102.432 73.3576 103.814 71.7709 105.644 71.6443C107.475 71.5177 109.062 72.899 109.188 74.7296C109.315 76.5602 107.934 78.1468 106.103 78.2735Z" fill="#545876" stroke="black" stroke-width="1.52004" stroke-miterlimit="1.5" stroke-linecap="round" stroke-linejoin="round"/>
<path d="M106.879 75.1935C106.155 75.2435 105.529 74.6978 105.479 73.9747C105.429 73.2515 105.974 72.6247 106.697 72.5747C107.421 72.5247 108.047 73.0704 108.097 73.7935C108.147 74.5167 107.602 75.1435 106.879 75.1935Z" fill="white"/>
<path d="M69.9535 81.1375C68.1229 81.2641 66.5363 79.8828 66.4097 78.0522C66.2831 76.2216 67.6644 74.6349 69.495 74.5083C71.3256 74.3817 72.9122 75.763 73.0388 77.5936C73.1655 79.4242 71.7841 81.0109 69.9535 81.1375Z" fill="#545876" stroke="black" stroke-width="1.52004" stroke-miterlimit="1.5" stroke-linecap="round" stroke-linejoin="round"/>
<path d="M70.7292 78.0576C70.006 78.1077 69.3792 77.562 69.3292 76.8388C69.2792 76.1156 69.8249 75.4889 70.548 75.4388C71.2712 75.3888 71.898 75.9345 71.948 76.6577C71.998 77.3808 71.4523 78.0076 70.7292 78.0576Z" fill="white"/>
<path d="M72.5215 66.0999C72.5215 66.0999 70.4684 65.2436 68.8841 65.2766C67.2726 65.3101 64.8171 66.3074 64.8171 66.3074" stroke="black" stroke-width="2.75735" stroke-miterlimit="1.5" stroke-linecap="round" stroke-linejoin="round"/>
<path d="M109.193 63.4805C109.193 63.4805 106.934 62.2795 105.349 62.3125C103.738 62.3461 101.489 63.688 101.489 63.688" stroke="black" stroke-width="2.75735" stroke-miterlimit="1.5" stroke-linecap="round" stroke-linejoin="round"/>
<path fill-rule="evenodd" clip-rule="evenodd" d="M88.8567 84.5083C85.2739 84.7865 82.2417 83.4375 82.5071 86.8549C82.7724 90.2723 85.8978 92.8219 89.4806 92.5437C93.0649 92.2654 95.7578 89.264 95.4925 85.8466C95.2271 82.4292 92.441 84.23 88.8567 84.5083Z" fill="#DB60A1" stroke="black" stroke-width="1.12524" stroke-miterlimit="1.5" stroke-linecap="round" stroke-linejoin="round"/>
<path fill-rule="evenodd" clip-rule="evenodd" d="M92.0299 91.8686C91.2094 90.7286 89.8123 89.8415 88.1111 89.5245C86.5288 89.2299 84.9909 89.4847 83.8017 90.1314C85.0892 91.7651 87.1992 92.7515 89.5001 92.5729C90.4125 92.502 91.2676 92.2545 92.0299 91.8686Z" fill="#F69ECD" stroke="black" stroke-width="1.12526" stroke-miterlimit="1.5" stroke-linecap="round" stroke-linejoin="round"/>
<path fill-rule="evenodd" clip-rule="evenodd" d="M95.464 85.4795C95.0281 82.562 92.3177 84.2399 88.8696 84.5076C85.4216 84.7753 82.4846 83.5359 82.5026 86.4859C82.5314 86.6841 82.5701 86.8791 82.6168 87.0707C84.2051 87.9613 86.5678 88.4273 89.1584 88.2262C91.749 88.025 94.0114 87.1999 95.4415 86.0749C95.4598 85.8783 95.4661 85.6798 95.464 85.4795Z" fill="white" stroke="black" stroke-width="1.12526" stroke-miterlimit="1.5" stroke-linecap="round" stroke-linejoin="round"/>
<path d="M91.9248 95.684L87.0966 96.0589" stroke="black" stroke-width="1.68789" stroke-miterlimit="1.5" stroke-linecap="round" stroke-linejoin="round"/>
<path d="M202.007 79.9469C183.092 81.9984 178.995 69.6463 179.07 64.224C179.212 54.0933 186.378 46.8715 186.378 46.8715" stroke="black" stroke-width="1.93015" stroke-miterlimit="1.5" stroke-linecap="round" stroke-linejoin="round"/>
<path fill-rule="evenodd" clip-rule="evenodd" d="M222.173 68.8681C221.619 67.5827 220.695 66.4306 219.442 65.5868C216.018 63.2813 211.407 64.1253 209.153 67.4737C206.899 70.8221 207.852 75.4133 211.275 77.7188C212.436 78.5006 213.735 78.9196 215.034 79.001" fill="#FFC2C8"/>
<path d="M222.173 68.8681C221.619 67.5827 220.695 66.4306 219.442 65.5868C216.018 63.2813 211.407 64.1253 209.153 67.4737C206.899 70.8221 207.852 75.4133 211.275 77.7188C212.436 78.5006 213.735 78.9196 215.034 79.001" stroke="black" stroke-width="1.2012" stroke-miterlimit="1.5" stroke-linecap="round" stroke-linejoin="round"/>
<path d="M215.956 75.3823C214.394 75.2742 213.215 73.92 213.323 72.3576C213.431 70.7953 214.785 69.6163 216.348 69.7244C217.91 69.8324 219.089 71.1866 218.981 72.749C218.873 74.3114 217.519 75.4903 215.956 75.3823Z" fill="#F792AF"/>
<path fill-rule="evenodd" clip-rule="evenodd" d="M223.796 43.1497C220.768 32.6615 230.801 23.524 240.841 31.43C239.049 15.5429 258.911 9.75362 274.337 28.5805C277.76 22.2329 291.998 25.5087 295.468 36.0352C308.16 32.6085 314.685 42.197 308.383 51.6025C308.383 51.6025 334.762 67.0774 332.467 78.8584C330.971 86.5399 323.265 86.6409 323.265 86.6409C323.265 86.6409 326.323 98.9824 320.804 104.693C313.696 112.048 304.15 108.054 304.15 108.054C304.15 108.054 302.534 116.09 291.768 117.6C282.671 118.878 277.328 114.181 277.328 114.181C277.328 114.181 270.899 118.609 259.907 117.463C252.79 116.72 249.806 109.768 249.806 109.768C249.806 109.768 235.318 114.467 228.207 112.099C220.726 109.609 221.861 102.276 221.861 102.276C221.861 102.276 210.841 104.853 203.24 95.6136C196.428 87.3332 202.144 77.6685 202.144 77.6685C202.144 77.6685 194.561 70.8888 196.1 62.4492C198.033 51.8576 212.819 47.1547 223.796 43.1497Z" fill="#FFC2C8" stroke="black" stroke-width="1.21501" stroke-miterlimit="1.5" stroke-linecap="round" stroke-linejoin="round"/>
<path fill-rule="evenodd" clip-rule="evenodd" d="M222.814 43.3807C214.183 46.8558 203.288 53.0974 201.877 60.8307C200.339 69.2704 206.444 73.2847 206.444 73.2847C206.444 73.2847 200.888 83.2384 207.7 91.5183C215.301 100.757 225.093 100.082 225.093 100.082C225.093 100.082 226.489 107.327 236.114 110.771C243.172 113.294 249.816 109.639 249.816 109.639C249.816 109.639 235.328 114.336 228.217 111.97C220.735 109.478 221.87 102.145 221.87 102.145C221.87 102.145 210.849 104.724 203.249 95.4835C196.437 87.2036 202.154 77.5382 202.154 77.5382C202.154 77.5382 194.569 70.7577 196.109 62.3181C197.983 52.0434 211.956 47.3105 222.814 43.3807ZM234.459 28.4018C229.623 27.7861 225.842 34.4494 226.139 40.981C226.301 44.54 226.148 49.1018 222.363 49.8907C225.054 48.0819 224.061 43.9069 223.798 42.9887C221.447 34.7863 227.085 27.4177 234.459 28.4018ZM253.12 16.6686C247.26 17.0709 243.336 25.3315 245.087 31.7104C246.758 37.7986 252.991 43.5013 257.322 41.147C249.938 45.3051 238.247 35.3899 241.324 25.1803C242.88 20.0164 247.394 16.8551 253.12 16.6686Z" fill="#FDD8DC"/>
<path fill-rule="evenodd" clip-rule="evenodd" d="M223.796 43.1497C220.768 32.6615 230.801 23.524 240.841 31.43C239.049 15.5429 258.911 9.75362 274.337 28.5805C277.76 22.2329 291.998 25.5087 295.468 36.0352C308.16 32.6085 314.685 42.197 308.383 51.6025C308.383 51.6025 334.762 67.0774 332.467 78.8584C330.971 86.5399 323.265 86.6409 323.265 86.6409C323.265 86.6409 326.323 98.9824 320.804 104.693C313.696 112.048 304.15 108.054 304.15 108.054C304.15 108.054 302.534 116.09 291.768 117.6C282.671 118.878 277.328 114.181 277.328 114.181C277.328 114.181 270.899 118.609 259.907 117.463C252.79 116.72 249.806 109.768 249.806 109.768C249.806 109.768 235.318 114.467 228.207 112.099C220.726 109.609 221.861 102.276 221.861 102.276C221.861 102.276 210.841 104.853 203.24 95.6136C196.428 87.3332 202.144 77.6685 202.144 77.6685C202.144 77.6685 194.561 70.8888 196.1 62.4492C198.033 51.8576 212.819 47.1547 223.796 43.1497Z" stroke="black" stroke-width="1.21501" stroke-miterlimit="1.5" stroke-linecap="round" stroke-linejoin="round"/>
<path d="M304.155 107.852C305.856 103.077 308.808 95.3596 315.539 96.0488" stroke="black" stroke-width="1.21501" stroke-miterlimit="1.5" stroke-linecap="round" stroke-linejoin="round"/>
<path d="M295.493 35.8016L296.353 39.1108" stroke="black" stroke-width="1.21652" stroke-miterlimit="1.5" stroke-linecap="round" stroke-linejoin="round"/>
<path d="M274.369 28.5477L277.31 31.9799" stroke="black" stroke-width="1.21652" stroke-miterlimit="1.5" stroke-linecap="round" stroke-linejoin="round"/>
<path d="M323.245 86.5413L322.246 81.0625" stroke="black" stroke-width="1.21652" stroke-miterlimit="1.5" stroke-linecap="round" stroke-linejoin="round"/>
<path d="M218.766 49.334C222.133 51.4651 225.161 49.035 223.781 42.9103" stroke="black" stroke-width="1.21652" stroke-miterlimit="1.5" stroke-linecap="round" stroke-linejoin="round"/>
<path d="M249.848 109.722C246.432 102.958 240.495 105.395 240.495 105.395" stroke="black" stroke-width="1.18247" stroke-miterlimit="1.5" stroke-linecap="round" stroke-linejoin="round"/>
<path d="M255.277 71.0385C255.277 71.0385 250.546 67.954 251.669 59.0503C252.489 52.5405 257.118 49.2355 255.103 42.4423" stroke="black" stroke-width="1.20947" stroke-miterlimit="1.5" stroke-linecap="round" stroke-linejoin="round"/>
<path d="M202.01 77.8741C205.178 71.9613 209.719 71.7451 210.565 68.1183C211.274 65.0819 209.312 63.2009 206.635 63.3381" stroke="black" stroke-width="1.18237" stroke-miterlimit="1.5" stroke-linecap="round" stroke-linejoin="round"/>
<path d="M280.072 106.289C287.396 106.994 296.279 104.654 299.046 97.8375C301.443 91.9339 298.907 85.4556 298.361 81.6173C298.034 79.3207 298.047 76.7102 299.711 74.0828" stroke="black" stroke-width="1.13803" stroke-miterlimit="1.5" stroke-linecap="round" stroke-linejoin="round"/>
<path d="M299.78 74.2391C300.507 73.0424 301.58 72.0284 302.937 71.3651C306.646 69.5529 311.097 71.0238 312.869 74.6506C314.64 78.2775 313.064 82.6938 309.356 84.5059C308.098 85.1205 306.754 85.3566 305.457 85.2585" stroke="black" stroke-width="1.2012" stroke-miterlimit="1.5" stroke-linecap="round" stroke-linejoin="round"/>
<path d="M305.139 81.5325C306.701 81.6406 308.055 80.4616 308.163 78.8993C308.271 77.3369 307.093 75.9827 305.53 75.8746C303.968 75.7666 302.614 76.9455 302.505 78.5079C302.397 80.0703 303.576 81.4245 305.139 81.5325Z" fill="#F6A8B0"/>
<path d="M240.88 31.4663C243.32 39.8887 252.824 45.3403 258.223 40.6676C262.964 36.5641 258.257 27.9596 252.539 30.4758" stroke="black" stroke-width="1.21501" stroke-miterlimit="1.5" stroke-linecap="round" stroke-linejoin="round"/>
<path d="M230.897 78.2735C232.728 78.4001 234.314 77.0187 234.441 75.1882C234.568 73.3576 233.186 71.7709 231.356 71.6443C229.525 71.5177 227.938 72.899 227.812 74.7296C227.685 76.5602 229.066 78.1468 230.897 78.2735Z" fill="#545876" stroke="black" stroke-width="1.52004" stroke-miterlimit="1.5" stroke-linecap="round" stroke-linejoin="round"/>
<path d="M230.121 75.1935C230.845 75.2435 231.471 74.6978 231.521 73.9747C231.571 73.2515 231.026 72.6247 230.303 72.5747C229.579 72.5247 228.953 73.0704 228.903 73.7935C228.853 74.5167 229.398 75.1435 230.121 75.1935Z" fill="white"/>
<path d="M267.046 81.1375C268.877 81.2641 270.464 79.8828 270.59 78.0522C270.717 76.2216 269.336 74.6349 267.505 74.5083C265.674 74.3817 264.088 75.763 263.961 77.5936C263.835 79.4242 265.216 81.0109 267.046 81.1375Z" fill="#545876" stroke="black" stroke-width="1.52004" stroke-miterlimit="1.5" stroke-linecap="round" stroke-linejoin="round"/>
<path d="M266.271 78.0576C266.994 78.1077 267.621 77.562 267.671 76.8388C267.721 76.1156 267.175 75.4889 266.452 75.4388C265.729 75.3888 265.102 75.9345 265.052 76.6577C265.002 77.3808 265.548 78.0076 266.271 78.0576Z" fill="white"/>
<path d="M264.479 66.0999C264.479 66.0999 266.532 65.2436 268.116 65.2766C269.727 65.3101 272.183 66.3074 272.183 66.3074" stroke="black" stroke-width="2.75735" stroke-miterlimit="1.5" stroke-linecap="round" stroke-linejoin="round"/>
<path d="M227.807 63.4805C227.807 63.4805 230.066 62.2795 231.651 62.3125C233.262 62.3461 235.511 63.688 235.511 63.688" stroke="black" stroke-width="2.75735" stroke-miterlimit="1.5" stroke-linecap="round" stroke-linejoin="round"/>
<path fill-rule="evenodd" clip-rule="evenodd" d="M248.143 84.5083C251.726 84.7865 254.758 83.4375 254.493 86.8549C254.228 90.2723 251.102 92.8219 247.519 92.5437C243.935 92.2654 241.242 89.264 241.508 85.8466C241.773 82.4292 244.559 84.23 248.143 84.5083Z" fill="#DB60A1" stroke="black" stroke-width="1.12524" stroke-miterlimit="1.5" stroke-linecap="round" stroke-linejoin="round"/>
<path fill-rule="evenodd" clip-rule="evenodd" d="M244.97 91.8686C245.791 90.7286 247.188 89.8415 248.889 89.5245C250.471 89.2299 252.009 89.4847 253.198 90.1314C251.911 91.7651 249.801 92.7515 247.5 92.5729C246.587 92.502 245.732 92.2545 244.97 91.8686Z" fill="#F69ECD" stroke="black" stroke-width="1.12526" stroke-miterlimit="1.5" stroke-linecap="round" stroke-linejoin="round"/>
<path fill-rule="evenodd" clip-rule="evenodd" d="M241.536 85.4795C241.972 82.562 244.682 84.2399 248.13 84.5076C251.578 84.7753 254.515 83.5359 254.497 86.4859C254.469 86.6841 254.43 86.8791 254.383 87.0707C252.795 87.9613 250.432 88.4273 247.842 88.2262C245.251 88.025 242.989 87.1999 241.558 86.0749C241.54 85.8783 241.534 85.6798 241.536 85.4795Z" fill="white" stroke="black" stroke-width="1.12526" stroke-miterlimit="1.5" stroke-linecap="round" stroke-linejoin="round"/>
<path d="M245.075 95.684L249.903 96.0589" stroke="black" stroke-width="1.68789" stroke-miterlimit="1.5" stroke-linecap="round" stroke-linejoin="round"/>
</svg>
