<svg width="146" height="112" viewBox="0 0 146 112" fill="none" xmlns="http://www.w3.org/2000/svg">
<path fill-rule="evenodd" clip-rule="evenodd" d="M126.294 61.3219C126.823 60.0896 127.716 58.9787 128.934 58.1565C132.263 55.9102 136.789 56.6457 139.032 59.8012C141.276 62.9567 140.392 67.3432 137.063 69.5895C135.934 70.3513 134.666 70.7695 133.395 70.8663" fill="#FFC2C8"/>
<path d="M126.294 61.3219C126.823 60.0896 127.716 58.9787 128.934 58.1565C132.263 55.9102 136.789 56.6457 139.032 59.8012C141.276 62.9567 140.392 67.3432 137.063 69.5895C135.934 70.3513 134.666 70.7695 133.395 70.8663" stroke="black" stroke-width="1.25131" stroke-miterlimit="1.5" stroke-linecap="round" stroke-linejoin="round"/>
<path d="M132.573 67.3852C134.102 67.2592 135.242 65.9521 135.12 64.4658C134.997 62.9794 133.658 61.8767 132.129 62.0027C130.6 62.1288 129.46 63.4359 129.582 64.9222C129.705 66.4086 131.044 67.5113 132.573 67.3852Z" fill="#FFA8D6" stroke="#E468AA" stroke-width="0.844588" stroke-miterlimit="1.5" stroke-linecap="round" stroke-linejoin="round"/>
<path fill-rule="evenodd" clip-rule="evenodd" d="M111.748 31.69C111.748 31.69 117.042 20.3236 110.199 15.5337C103.312 10.7119 97.1041 14.5199 95.1604 18.516C96.4428 13.7516 93.6591 4.04824 80.0353 4.75856C69.0357 5.33218 59.1999 20.5369 59.1999 20.5369C59.1999 20.5369 58.3662 14.1685 52.2478 14.9037C44.6444 15.8173 41.982 23.4531 41.982 23.4531C41.982 23.4531 32.5776 20.2389 28.5572 27.0507C24.8349 33.3594 30.9057 38.7279 30.9057 38.7279" fill="#FFC2C8"/>
<path d="M111.748 31.69C111.748 31.69 117.042 20.3236 110.199 15.5337C103.312 10.7119 97.1041 14.5199 95.1604 18.516C96.4428 13.7516 93.6591 4.04824 80.0353 4.75856C69.0357 5.33218 59.1999 20.5369 59.1999 20.5369C59.1999 20.5369 58.3662 14.1685 52.2478 14.9037C44.6444 15.8173 41.982 23.4531 41.982 23.4531C41.982 23.4531 32.5776 20.2389 28.5572 27.0507C24.8349 33.3594 30.9057 38.7279 30.9057 38.7279" stroke="black" stroke-width="1.26689" stroke-miterlimit="1.5" stroke-linecap="round" stroke-linejoin="round"/>
<path d="M72.8073 40.652C45.7849 42.8794 23.5747 40.9952 23.1996 36.4434C22.8244 31.8917 44.4262 26.3961 71.4486 24.1687C98.471 21.9413 120.681 23.8255 121.056 28.3772C121.431 32.929 99.8297 38.4246 72.8073 40.652Z" fill="#E8EAEF" stroke="black" stroke-width="1.21865" stroke-miterlimit="1.5" stroke-linecap="round" stroke-linejoin="round"/>
<path fill-rule="evenodd" clip-rule="evenodd" d="M120.968 28.3551L123.83 39.3392L22.0875 47.7257L23.0492 36.4264" fill="#E8EAEF"/>
<path d="M120.968 28.3551L123.83 39.3392L22.0875 47.7257L23.0492 36.4264" stroke="black" stroke-width="1.24847" stroke-miterlimit="1.5" stroke-linecap="round" stroke-linejoin="round"/>
<path d="M73.5939 51.2215C45.4987 53.5373 22.4325 51.8903 22.0742 47.5428C21.7158 43.1952 44.2009 37.7935 72.2961 35.4776C100.391 33.1618 123.458 34.8088 123.816 39.1563C124.174 43.5039 101.689 48.9056 73.5939 51.2215Z" fill="#BBBCCF" stroke="black" stroke-width="1.19747" stroke-miterlimit="1.5" stroke-linecap="round" stroke-linejoin="round"/>
<path fill-rule="evenodd" clip-rule="evenodd" d="M122.437 35.1116C122.271 34.3036 121.993 33.4328 121.853 32.8856C120.577 27.9011 99.016 26.3309 71.8297 28.5718C44.6453 30.8126 23.5088 36.6322 23.1371 41.0925C23.0737 41.8493 23.0088 42.4031 22.9557 43.1922C27.3681 38.79 48.2631 33.8309 72.1013 31.8659C95.9394 29.901 117.585 31.6947 122.437 35.1116Z" fill="#A7A2F6"/>
<path d="M73.4571 49.8601C47.5558 51.9951 26.3261 50.9038 26.0391 47.4226C25.7522 43.9414 46.5167 39.3886 72.418 37.2536C98.3193 35.1186 119.549 36.2099 119.836 39.6911C120.123 43.1722 99.3584 47.7251 73.4571 49.8601Z" fill="#FFC2C8" stroke="black" stroke-width="1.15624" stroke-miterlimit="1.5" stroke-linecap="round" stroke-linejoin="round"/>
<path fill-rule="evenodd" clip-rule="evenodd" d="M29.7481 46.2982C29.7481 46.2982 3.47827 58.5091 5.85213 69.6947C7.39976 76.9881 14.949 76.9702 14.949 76.9702C14.949 76.9702 12.0846 88.7689 17.5518 94.1257C24.5923 101.025 33.8999 97.08 33.8999 97.08C33.8999 97.08 35.568 104.709 46.1296 105.988C55.0529 107.07 60.237 102.518 60.237 102.518C60.237 102.518 66.5811 106.64 77.3353 105.386C84.2984 104.573 87.1467 97.9076 87.1467 97.9076C87.1467 97.9076 101.388 102.169 108.328 99.8083C115.628 97.3262 114.439 90.3596 114.439 90.3596C114.439 90.3596 125.812 90.6912 133.158 81.7791C139.742 73.7923 133.488 66.6323 133.488 66.6323C133.488 66.6323 140.844 60.0634 139.246 52.0487C137.24 41.9904 116.281 39.6573 116.281 39.6573" fill="#FFC2C8"/>
<path d="M29.7481 46.2982C29.7481 46.2982 3.47827 58.5091 5.85213 69.6947C7.39975 76.9881 14.949 76.9702 14.949 76.9702C14.949 76.9702 12.0846 88.7689 17.5518 94.1257C24.5923 101.025 33.8999 97.08 33.8999 97.08C33.8999 97.08 35.568 104.709 46.1296 105.988C55.0529 107.07 60.237 102.518 60.237 102.518C60.237 102.518 66.5811 106.64 77.3353 105.386C84.2984 104.573 87.1467 97.9076 87.1467 97.9076C87.1467 97.9076 101.388 102.169 108.328 99.8083C115.628 97.3262 114.439 90.3596 114.439 90.3596C114.439 90.3596 125.812 90.6912 133.158 81.7791C139.742 73.7923 133.488 66.6323 133.488 66.6323C133.488 66.6323 140.844 60.0634 139.246 52.0487C137.24 41.9904 116.281 39.6573 116.281 39.6573" stroke="black" stroke-width="1.26783" stroke-miterlimit="1.5" stroke-linecap="round" stroke-linejoin="round"/>
<path d="M33.8941 97.1199C32.1774 92.597 29.2034 85.2914 22.6179 86.0475" stroke="black" stroke-width="1.26783" stroke-miterlimit="1.5" stroke-linecap="round" stroke-linejoin="round"/>
<path d="M87.2064 97.702C90.4805 91.2094 96.3221 93.4423 96.3221 93.4423" stroke="black" stroke-width="1.23219" stroke-miterlimit="1.5" stroke-linecap="round" stroke-linejoin="round"/>
<path d="M84.3808 55.4377C84.3808 55.4377 88.978 53.5032 87.1057 48.3942C85.3373 43.5682 80.6415 42.0576 82.5275 36.5172" stroke="black" stroke-width="1.23304" stroke-miterlimit="1.5" stroke-linecap="round" stroke-linejoin="round"/>
<path d="M133.554 66.6121C130.512 62.5495 123.585 61.3443 122.339 56.4032C121.612 53.5219 123.349 51.0668 126.074 50.0002" stroke="black" stroke-width="1.23304" stroke-miterlimit="1.5" stroke-linecap="round" stroke-linejoin="round"/>
<path d="M56.239 92.6303C42.6955 93.9305 37.4247 85.456 39.0561 76.4322C39.8878 71.8316 44.5686 68.2671 46.9512 63.9742C49.4316 59.5044 45.0419 55.7124 39.7967 57.1832" stroke="black" stroke-width="1.18708" stroke-miterlimit="1.5" stroke-linecap="round" stroke-linejoin="round"/>
<path d="M102.209 60.248C104.228 60.0816 105.734 58.3553 105.572 56.3923C105.411 54.4293 103.642 52.9729 101.623 53.1394C99.603 53.3058 98.097 55.0321 98.2588 56.9951C98.4206 58.9581 100.189 60.4145 102.209 60.248Z" fill="#25283F" stroke="black" stroke-width="1.26701" stroke-miterlimit="1.5" stroke-linecap="round" stroke-linejoin="round"/>
<path d="M100.397 57.54C101.336 57.4625 102.037 56.6595 101.961 55.7463C101.886 54.8331 101.063 54.1556 100.124 54.2331C99.1845 54.3105 98.4839 55.1136 98.5591 56.0267C98.6344 56.9399 99.457 57.6174 100.397 57.54Z" fill="white"/>
<path d="M65.3443 63.104C67.3643 62.9375 68.8707 61.2108 68.7089 59.2473C68.547 57.2839 66.7782 55.8272 64.7582 55.9937C62.7382 56.1602 61.2318 57.8869 61.3936 59.8503C61.5555 61.8138 63.3242 63.2705 65.3443 63.104Z" fill="#25283F" stroke="black" stroke-width="1.2673" stroke-miterlimit="1.5" stroke-linecap="round" stroke-linejoin="round"/>
<path d="M63.5333 60.3958C64.4732 60.3183 65.1741 59.5148 65.0988 58.6012C65.0235 57.6876 64.2005 57.0098 63.2605 57.0873C62.3206 57.1647 61.6196 57.9682 61.695 58.8818C61.7703 59.7954 62.5933 60.4733 63.5333 60.3958Z" fill="white"/>
<path d="M61.4736 53.5237L68.3918 52.9534" stroke="black" stroke-width="3.37858" stroke-miterlimit="1.5" stroke-linecap="round" stroke-linejoin="round"/>
<path d="M53.3398 71.3009L54.8523 76.3341" stroke="#FEDBEE" stroke-width="1.68929" stroke-miterlimit="1.5" stroke-linecap="round" stroke-linejoin="round"/>
<path d="M50.7832 72.1891L51.6298 75.067" stroke="#FEDBEE" stroke-width="1.68929" stroke-miterlimit="1.5" stroke-linecap="round" stroke-linejoin="round"/>
<path d="M56.0557 70.4149L56.9022 73.2928" stroke="#FEDBEE" stroke-width="1.68929" stroke-miterlimit="1.5" stroke-linecap="round" stroke-linejoin="round"/>
<path d="M119.908 66.7217L119.037 71.9122" stroke="#FEDBEE" stroke-width="1.68928" stroke-miterlimit="1.5" stroke-linecap="round" stroke-linejoin="round"/>
<path d="M117.053 66.6799L116.563 69.6407" stroke="#FEDBEE" stroke-width="1.68928" stroke-miterlimit="1.5" stroke-linecap="round" stroke-linejoin="round"/>
<path d="M122.75 67.3805L122.262 70.3419" stroke="#FEDBEE" stroke-width="1.68928" stroke-miterlimit="1.5" stroke-linecap="round" stroke-linejoin="round"/>
<path d="M104.93 46.446L97.7911 47.0345" stroke="black" stroke-width="3.37858" stroke-miterlimit="1.5" stroke-linecap="round" stroke-linejoin="round"/>
<path fill-rule="evenodd" clip-rule="evenodd" d="M86.7984 74.9224C79.7732 75.4362 67.8629 67.6326 65.1778 73.7398C62.1219 80.688 76.993 89.463 87.9312 88.6642C99.0472 87.8526 112.089 77.3895 107.33 70.6606C103.927 65.8517 94.7131 74.3451 86.7984 74.9224Z" fill="#DB60A1" stroke="black" stroke-width="0.842039" stroke-miterlimit="1.5" stroke-linecap="round" stroke-linejoin="round"/>
<path fill-rule="evenodd" clip-rule="evenodd" d="M70.787 71.5562C70.9949 75.186 78.4174 79.0787 87.0474 78.4316C95.9815 77.7613 101.714 73.3774 101.697 69.7405C97.4392 71.048 91.8709 74.6271 86.8304 74.9956C82.2541 75.3293 75.6086 72.1362 70.787 71.5562Z" fill="white" stroke="black" stroke-width="0.844347" stroke-miterlimit="1.5" stroke-linecap="round" stroke-linejoin="round"/>
<path fill-rule="evenodd" clip-rule="evenodd" d="M80.5409 88.0401C80.8822 85.3859 83.8385 82.243 88.0459 84.2718C92.3426 81.7837 95.1815 84.3794 95.944 86.64C93.3191 87.7694 90.5275 88.5248 87.849 88.7212C85.5208 88.8905 83.0156 88.6274 80.5409 88.0401Z" fill="#F69ECD" stroke="black" stroke-width="0.844347" stroke-miterlimit="1.5" stroke-linecap="round" stroke-linejoin="round"/>
<path fill-rule="evenodd" clip-rule="evenodd" d="M34.5922 66.9877C33.8679 65.8588 32.8058 64.909 31.4692 64.2974C27.8176 62.6265 23.4731 64.0932 21.7766 67.5734C20.08 71.0537 21.6707 75.2362 25.3224 76.9071C26.5608 77.4738 27.8801 77.6788 29.1496 77.5661" fill="#FFC2C8"/>
<path d="M34.5922 66.9877C33.8679 65.8588 32.8058 64.909 31.4692 64.2974C27.8176 62.6265 23.4731 64.0932 21.7766 67.5734C20.08 71.0537 21.6707 75.2362 25.3224 76.9071C26.5608 77.4738 27.8801 77.6788 29.1496 77.5661" stroke="black" stroke-width="1.25131" stroke-miterlimit="1.5" stroke-linecap="round" stroke-linejoin="round"/>
<path d="M29.4952 74.127C27.966 74.253 26.627 73.1503 26.5045 71.6639C26.382 70.1776 27.5223 68.8705 29.0515 68.7445C30.5807 68.6184 31.9196 69.7212 32.0421 71.2075C32.1647 72.6938 31.0243 74.0009 29.4952 74.127Z" fill="#FCA7B0"/>
<path fill-rule="evenodd" clip-rule="evenodd" d="M95.1228 18.5682C92.8208 26.6256 83.8485 31.701 78.5101 27.3309C73.8231 23.4931 78.3416 15.2289 83.9685 17.5405" fill="#FFC2C8"/>
<path d="M95.1228 18.5682C92.8208 26.6256 83.8485 31.701 78.5101 27.3309C73.8231 23.4931 78.3416 15.2289 83.9685 17.5405" stroke="black" stroke-width="1.26783" stroke-miterlimit="1.5" stroke-linecap="round" stroke-linejoin="round"/>
</svg>
