<svg width="144" height="135" viewBox="0 0 144 135" fill="none" xmlns="http://www.w3.org/2000/svg">
<path fill-rule="evenodd" clip-rule="evenodd" d="M111.567 53.3934C112.122 52.1081 113.045 50.956 114.298 50.1122C117.722 47.8067 122.333 48.6507 124.587 51.9991C126.841 55.3475 125.889 59.9387 122.465 62.2442C121.304 63.026 120.005 63.445 118.707 63.5264" fill="#FFC2C8"/>
<path d="M111.567 53.3934C112.122 52.1081 113.045 50.956 114.298 50.1122C117.722 47.8067 122.333 48.6507 124.587 51.9991C126.841 55.3475 125.889 59.9387 122.465 62.2442C121.304 63.026 120.005 63.445 118.707 63.5264" stroke="black" stroke-width="1.2012" stroke-miterlimit="1.5" stroke-linecap="round" stroke-linejoin="round"/>
<path d="M117.785 59.9078C119.347 59.7997 120.526 58.4455 120.418 56.8832C120.31 55.3208 118.956 54.1418 117.393 54.2499C115.831 54.3579 114.652 55.7121 114.76 57.2745C114.868 58.8369 116.222 60.0158 117.785 59.9078Z" fill="#F792AF"/>
<path fill-rule="evenodd" clip-rule="evenodd" d="M109.944 27.675C112.972 17.1868 102.939 8.04932 92.8989 15.9553C94.6913 0.0681541 74.8294 -5.72111 59.4032 13.1058C55.9802 6.75812 41.7423 10.034 38.2724 20.5604C25.5803 17.1338 19.0557 26.7223 25.3577 36.1277C25.3577 36.1277 -1.02222 51.6027 1.27307 63.3837C2.76945 71.0652 10.4757 71.1662 10.4757 71.1662C10.4757 71.1662 7.41698 83.5076 12.9365 89.2183C20.0444 96.5736 29.5905 92.5792 29.5905 92.5792C29.5905 92.5792 31.206 100.615 41.9725 102.125C51.0688 103.403 56.4126 98.7058 56.4126 98.7058C56.4126 98.7058 62.8414 103.135 73.8333 101.988C80.9504 101.245 83.9341 94.293 83.9341 94.293C83.9341 94.293 98.4224 98.9925 105.533 96.6245C113.014 94.1345 111.88 86.8017 111.88 86.8017C111.88 86.8017 122.899 89.3782 130.5 80.1389C137.312 71.8584 131.596 62.1937 131.596 62.1937C131.596 62.1937 139.18 55.414 137.64 46.9745C135.707 36.3828 120.922 31.68 109.944 27.675Z" fill="#FFC2C8" stroke="black" stroke-width="1.21501" stroke-miterlimit="1.5" stroke-linecap="round" stroke-linejoin="round"/>
<path fill-rule="evenodd" clip-rule="evenodd" d="M110.927 27.9059C119.558 31.3811 130.452 37.6227 131.863 45.356C133.401 53.7957 127.296 57.8099 127.296 57.8099C127.296 57.8099 132.852 67.7637 126.04 76.0436C118.439 85.2822 108.647 84.6074 108.647 84.6074C108.647 84.6074 107.251 91.8518 97.6258 95.296C90.5685 97.8192 83.9245 94.1645 83.9245 94.1645C83.9245 94.1645 98.4124 98.8617 105.524 96.4955C113.005 94.0032 111.87 86.6707 111.87 86.6707C111.87 86.6707 122.891 89.2493 130.491 80.0088C137.303 71.7288 131.586 62.0635 131.586 62.0635C131.586 62.0635 139.171 55.283 137.631 46.8434C135.757 36.5687 121.784 31.8358 110.927 27.9059ZM99.2816 12.9271C104.118 12.3113 107.898 18.9747 107.601 25.5062C107.439 29.0652 107.592 33.627 111.377 34.4159C108.686 32.6072 109.679 28.4322 109.943 27.514C112.293 19.3116 106.656 11.9429 99.2816 12.9271ZM80.6205 1.19388C86.4807 1.59613 90.4042 9.85675 88.6537 16.2357C86.9823 22.3239 80.7488 28.0266 76.418 25.6723C83.8018 29.8304 95.4933 19.9151 92.4164 9.70553C90.8599 4.54171 86.3465 1.38042 80.6205 1.19388Z" fill="#FDD8DC"/>
<path fill-rule="evenodd" clip-rule="evenodd" d="M109.944 27.675C112.972 17.1868 102.939 8.04932 92.8989 15.9553C94.6913 0.068154 74.8294 -5.72111 59.4032 13.1058C55.9802 6.75812 41.7423 10.034 38.2724 20.5604C25.5803 17.1338 19.0557 26.7223 25.3577 36.1277C25.3577 36.1277 -1.02222 51.6027 1.27307 63.3837C2.76945 71.0652 10.4757 71.1662 10.4757 71.1662C10.4757 71.1662 7.41698 83.5076 12.9365 89.2183C20.0444 96.5736 29.5905 92.5792 29.5905 92.5792C29.5905 92.5792 31.206 100.615 41.9725 102.125C51.0688 103.403 56.4126 98.7058 56.4126 98.7058C56.4126 98.7058 62.8414 103.135 73.8333 101.988C80.9504 101.245 83.9341 94.293 83.9341 94.293C83.9341 94.293 98.4224 98.9925 105.533 96.6245C113.014 94.1345 111.88 86.8017 111.88 86.8017C111.88 86.8017 122.899 89.3782 130.5 80.1389C137.312 71.8584 131.596 62.1937 131.596 62.1937C131.596 62.1937 139.18 55.414 137.64 46.9745C135.707 36.3828 120.922 31.68 109.944 27.675Z" stroke="black" stroke-width="1.21501" stroke-miterlimit="1.5" stroke-linecap="round" stroke-linejoin="round"/>
<path d="M29.5878 92.3779C27.8871 87.6023 24.9348 79.8852 18.2039 80.5745" stroke="black" stroke-width="1.21501" stroke-miterlimit="1.5" stroke-linecap="round" stroke-linejoin="round"/>
<path d="M38.2497 20.3271L37.3897 23.6363" stroke="black" stroke-width="1.21652" stroke-miterlimit="1.5" stroke-linecap="round" stroke-linejoin="round"/>
<path d="M59.374 13.0733L56.4332 16.5055" stroke="black" stroke-width="1.21652" stroke-miterlimit="1.5" stroke-linecap="round" stroke-linejoin="round"/>
<path d="M10.4984 71.0667L11.4975 65.5879" stroke="black" stroke-width="1.21652" stroke-miterlimit="1.5" stroke-linecap="round" stroke-linejoin="round"/>
<path d="M114.977 33.8595C111.611 35.9906 108.582 33.5605 109.962 27.4358" stroke="black" stroke-width="1.21652" stroke-miterlimit="1.5" stroke-linecap="round" stroke-linejoin="round"/>
<path d="M83.8948 94.2478C87.3111 87.4835 93.2486 89.9204 93.2486 89.9204" stroke="black" stroke-width="1.18247" stroke-miterlimit="1.5" stroke-linecap="round" stroke-linejoin="round"/>
<path d="M78.4663 55.5641C78.4663 55.5641 83.1968 52.4797 82.0747 43.576C81.2543 37.0661 76.6254 33.7612 78.6397 26.9679" stroke="black" stroke-width="1.20947" stroke-miterlimit="1.5" stroke-linecap="round" stroke-linejoin="round"/>
<path d="M131.733 62.3997C128.565 56.4868 124.025 56.2706 123.178 52.6438C122.469 49.6074 124.431 47.7265 127.109 47.8636" stroke="black" stroke-width="1.18237" stroke-miterlimit="1.5" stroke-linecap="round" stroke-linejoin="round"/>
<path d="M53.6712 90.8147C46.3472 91.5195 37.4642 89.1798 34.6967 82.363C32.3 76.4594 34.836 69.9811 35.3824 66.1428C35.7091 63.8462 35.6957 61.2357 34.0321 58.6083" stroke="black" stroke-width="1.13803" stroke-miterlimit="1.5" stroke-linecap="round" stroke-linejoin="round"/>
<path d="M33.961 58.7642C33.2347 57.5675 32.1613 56.5535 30.804 55.8902C27.0956 54.0781 22.644 55.549 20.8725 59.1758C19.1009 62.8026 20.6768 67.2189 24.3852 69.0311C25.6429 69.6457 26.9873 69.8818 28.2844 69.7836" stroke="black" stroke-width="1.2012" stroke-miterlimit="1.5" stroke-linecap="round" stroke-linejoin="round"/>
<path d="M28.6024 66.0577C27.0401 66.1657 25.6859 64.9868 25.5778 63.4244C25.4698 61.862 26.6487 60.5078 28.2111 60.3998C29.7735 60.2917 31.1276 61.4707 31.2357 63.033C31.3438 64.5954 30.1648 65.9496 28.6024 66.0577Z" fill="#F6A8B0"/>
<path d="M92.8598 15.9916C90.4198 24.414 80.9165 29.8655 75.5171 25.1929C70.7766 21.0894 75.4835 12.4849 81.2008 15.0011" stroke="black" stroke-width="1.21501" stroke-miterlimit="1.5" stroke-linecap="round" stroke-linejoin="round"/>
<path d="M90.0368 72.8197C90.0368 72.8197 86.7782 73.9434 84.5971 74.0943C82.4159 74.2451 79.0337 73.5808 79.0337 73.5808" stroke="black" stroke-width="1.51955" stroke-miterlimit="1.5" stroke-linecap="round" stroke-linejoin="round"/>
<path d="M102.844 62.7986C101.014 62.9252 99.4269 61.5439 99.3003 59.7133C99.1737 57.8827 100.555 56.2961 102.386 56.1695C104.216 56.0428 105.803 57.4242 105.929 59.2548C106.056 61.0854 104.675 62.672 102.844 62.7986Z" fill="#545876" stroke="black" stroke-width="1.52004" stroke-miterlimit="1.5" stroke-linecap="round" stroke-linejoin="round"/>
<path d="M103.621 59.7186C102.898 59.7687 102.271 59.223 102.221 58.4998C102.171 57.7767 102.716 57.1499 103.44 57.0998C104.163 57.0498 104.79 57.5955 104.84 58.3187C104.89 59.0418 104.344 59.6686 103.621 59.7186Z" fill="white"/>
<path d="M66.6947 65.6628C64.8641 65.7894 63.2775 64.408 63.1509 62.5774C63.0243 60.7468 64.4056 59.1602 66.2362 59.0336C68.0668 58.907 69.6534 60.2883 69.78 62.1189C69.9067 63.9495 68.5253 65.5361 66.6947 65.6628Z" fill="#545876" stroke="black" stroke-width="1.52004" stroke-miterlimit="1.5" stroke-linecap="round" stroke-linejoin="round"/>
<path d="M67.4704 62.5829C66.7472 62.6329 66.1204 62.0872 66.0704 61.3641C66.0204 60.6409 66.5661 60.0141 67.2892 59.9641C68.0124 59.9141 68.6392 60.4598 68.6892 61.1829C68.7392 61.9061 68.1935 62.5329 67.4704 62.5829Z" fill="white"/>
<path d="M67.6709 43.2793L59.9665 43.4868" stroke="black" stroke-width="4.05297" stroke-miterlimit="1.5" stroke-linecap="round" stroke-linejoin="round"/>
<path d="M95.3252 41.3666L102.985 40.5114" stroke="black" stroke-width="4.05297" stroke-miterlimit="1.5" stroke-linecap="round" stroke-linejoin="round"/>
<path d="M65.5769 72.1931C58.4255 72.6877 52.2414 67.4968 51.7643 60.5989C51.2872 53.7009 56.6977 47.7081 63.8491 47.2134C71.0005 46.7187 77.1846 51.9096 77.6618 58.8076C78.1389 65.7055 72.7283 71.6984 65.5769 72.1931Z" fill="#C4EEFC" fill-opacity="0.25"/>
<path d="M65.5769 72.1931C58.4255 72.6877 52.2414 67.4968 51.7643 60.5989C51.2872 53.7009 56.6977 47.7081 63.8491 47.2134C71.0005 46.7187 77.1846 51.9096 77.6618 58.8076C78.1389 65.7055 72.7283 71.6984 65.5769 72.1931Z" stroke="black" stroke-width="1.51968" stroke-miterlimit="1.5" stroke-linecap="round" stroke-linejoin="round"/>
<path d="M102.761 69.5445C95.6091 70.0392 89.425 64.8483 88.9479 57.9503C88.4707 51.0524 93.8813 45.0595 101.033 44.5648C108.184 44.0702 114.368 49.2611 114.845 56.159C115.322 63.057 109.912 69.0499 102.761 69.5445Z" fill="#C4EEFC" fill-opacity="0.25"/>
<path d="M102.761 69.5445C95.6091 70.0392 89.425 64.8483 88.9479 57.9503C88.4707 51.0524 93.8813 45.0595 101.033 44.5648C108.184 44.0702 114.368 49.2611 114.845 56.159C115.322 63.057 109.912 69.0499 102.761 69.5445Z" stroke="black" stroke-width="1.51968" stroke-miterlimit="1.5" stroke-linecap="round" stroke-linejoin="round"/>
<path d="M88.876 56.572C85.0346 53.6845 81.2726 53.97 77.5851 57.353" stroke="black" stroke-width="1.51731" stroke-miterlimit="1.5" stroke-linecap="round" stroke-linejoin="round"/>
<path d="M114.957 55.7954L119.405 53.4483C121.352 52.4204 123.768 53.1673 124.796 55.1149C125.17 55.8227 125.309 56.5916 125.241 57.3335" stroke="black" stroke-width="1.51978" stroke-miterlimit="1.5" stroke-linecap="round" stroke-linejoin="round"/>
<path d="M51.7734 60.1099L47.0451 58.3974C44.9745 57.6475 42.6844 58.7199 41.9345 60.7904C41.6619 61.543 41.6302 62.3237 41.7992 63.0491" stroke="black" stroke-width="1.51978" stroke-miterlimit="1.5" stroke-linecap="round" stroke-linejoin="round"/>
<path fill-rule="evenodd" clip-rule="evenodd" d="M99.8909 95.4975C109.226 85.7499 121.442 79.7627 136.035 76.8773L105.739 111.055C92.0313 114.191 80.0203 120.466 69.5947 129.675L99.8909 95.4975Z" fill="white" stroke="black" stroke-width="0.947182" stroke-miterlimit="1.5" stroke-linecap="round" stroke-linejoin="round"/>
<path fill-rule="evenodd" clip-rule="evenodd" d="M99.8826 95.5079C86.3875 83.7544 69.8068 76.2735 49.1185 74.4797L18.8223 108.657C38.6733 112.543 55.6004 119.547 69.5864 129.685L99.8826 95.5079Z" fill="white" stroke="black" stroke-width="0.947182" stroke-miterlimit="1.5" stroke-linecap="round" stroke-linejoin="round"/>
<path fill-rule="evenodd" clip-rule="evenodd" d="M75.4618 127.254L105.758 93.0766L140.79 78.8637C141.158 78.7142 141.375 78.7221 141.452 78.8637C141.665 79.2571 142.995 80.9141 142.995 80.9141L118.729 109.271C116.388 111.912 113.357 114.515 111.964 115.08L75.4336 129.901L75.4618 127.254Z" fill="white" stroke="black" stroke-width="0.947182" stroke-miterlimit="1.5" stroke-linecap="round" stroke-linejoin="round"/>
<path fill-rule="evenodd" clip-rule="evenodd" d="M64.4764 129.281L94.7726 95.1036L94.8007 92.4567L49.222 78.1702C46.218 77.2287 41.9214 78.5602 39.633 81.1419L17.6297 105.964C16.7111 107 16.2548 108.081 16.2319 109.065C16.2271 109.273 16.1983 111.878 16.2319 112.076C16.4356 113.275 16.8658 114.332 18.4088 114.815L64.4764 129.281Z" fill="white" stroke="black" stroke-width="0.947182" stroke-miterlimit="1.5" stroke-linecap="round" stroke-linejoin="round"/>
<path fill-rule="evenodd" clip-rule="evenodd" d="M94.8242 92.4639L105.549 93.3122V95.9612L94.8242 95.113V92.4639Z" fill="white" stroke="black" stroke-width="0.947182" stroke-miterlimit="1.5" stroke-linecap="round" stroke-linejoin="round"/>
<path fill-rule="evenodd" clip-rule="evenodd" d="M75.4336 129.904L105.73 95.7266L142.261 80.9056C143.713 80.3164 142.991 81.9822 140.65 84.623L118.837 109.231C116.496 111.872 113.416 114.494 111.964 115.083L75.4336 129.904Z" fill="#A8AAC3" stroke="black" stroke-width="0.947182" stroke-miterlimit="1.5" stroke-linecap="round" stroke-linejoin="round"/>
<path fill-rule="evenodd" clip-rule="evenodd" d="M64.4894 129.293L94.7856 95.1154L49.2069 80.8286C46.2032 79.8871 41.9063 81.2186 39.6178 83.8003L17.6146 108.622C15.3259 111.204 15.9067 114.065 18.9107 115.006L64.4894 129.293Z" fill="#C7C8DD" stroke="black" stroke-width="0.947182" stroke-miterlimit="1.5" stroke-linecap="round" stroke-linejoin="round"/>
<path fill-rule="evenodd" clip-rule="evenodd" d="M94.7825 95.1223L105.507 95.9705L75.2108 130.148L64.4863 129.3L94.7825 95.1223Z" fill="#C7C8DD" stroke="black" stroke-width="0.947182" stroke-miterlimit="1.5" stroke-linecap="round" stroke-linejoin="round"/>
<path fill-rule="evenodd" clip-rule="evenodd" d="M78.1945 103.525C80.0427 101.44 79.5737 99.1291 77.1476 98.3686L54.5965 91.2999C52.1701 90.5395 48.6998 91.615 46.8514 93.7001C45.0029 95.7853 45.4722 98.0956 47.8983 98.8563L70.4494 105.925C72.8755 106.685 76.346 105.61 78.1945 103.525Z" stroke="white" stroke-width="0.947182" stroke-miterlimit="1.5" stroke-linecap="round" stroke-linejoin="round"/>
</svg>
