<svg width="229" height="75" viewBox="0 0 229 75" fill="none" xmlns="http://www.w3.org/2000/svg">
<path d="M10.0359 2.14307H218.964C222.982 2.14307 226.197 5.35735 226.197 9.37521V65.6252C226.197 69.6431 222.982 72.8574 218.964 72.8574H10.0359C6.018 72.8574 2.80371 69.6431 2.80371 65.6252V9.37521C2.80371 5.35735 6.018 2.14307 10.0359 2.14307Z" fill="#212529"/>
<path d="M218.964 1.20557H10.0359C5.50023 1.20557 1.86621 4.83959 1.86621 9.37521V65.6252C1.86621 70.1608 5.50023 73.7949 10.0359 73.7949H218.964C223.5 73.7949 227.134 70.1608 227.134 65.6252V9.37521C227.134 4.83958 223.5 1.20557 218.964 1.20557Z" stroke="#212529" stroke-opacity="0.2" stroke-width="1.875"/>
<path fill-rule="evenodd" clip-rule="evenodd" d="M83.4827 43.2859V46.1788H90.3934C90.2327 47.4645 89.7506 48.7502 88.7863 49.8752C87.3398 51.3216 85.4113 52.1252 83.4827 51.9645C79.1434 51.9645 75.7684 48.5895 75.7684 44.2502C75.7684 39.9109 79.1434 36.5359 83.4827 36.5359C85.4113 36.5359 87.3398 37.1788 88.7863 38.6252L90.8756 36.5359C88.947 34.6073 86.3756 33.4823 83.6434 33.4823C79.7863 33.3216 76.0898 35.2502 74.1613 38.6252C72.2327 42.0002 72.2327 46.1788 74.1613 49.5538C76.0898 52.9288 79.7863 54.8573 83.6434 54.6966C86.3756 54.8573 89.1077 53.7323 91.0363 51.643C92.6434 49.7145 93.6077 47.3038 93.6077 44.893C93.6077 44.2502 93.6077 43.6073 93.447 43.1252L83.4827 43.2859ZM101.322 41.1966C97.6256 41.1966 94.572 44.2502 94.572 48.1073C94.572 51.9645 97.6256 54.8573 101.483 54.8573C105.34 54.8573 108.233 51.8038 108.233 47.9466C108.233 46.1788 107.59 44.4109 106.304 43.1252C105.018 41.8395 103.251 41.0359 101.322 41.1966ZM109.518 47.9466C109.518 44.2502 112.572 41.0359 116.268 41.0359C118.036 41.0359 119.804 41.6788 121.09 42.9645C122.376 44.2502 123.179 46.018 123.018 47.7859C123.018 51.4823 119.965 54.5359 116.268 54.6966C112.572 54.8573 109.518 51.8038 109.518 47.9466ZM112.251 49.7145C113.054 51.3216 114.661 52.1252 116.268 52.1252C117.393 52.1252 118.358 51.643 119.001 50.8395C119.804 50.0359 120.126 49.0716 120.126 47.9466C120.126 46.1788 119.001 44.7323 117.554 44.0895C115.947 43.4466 114.179 43.9288 113.054 45.0538C111.768 46.3395 111.608 48.268 112.251 49.7145ZM97.3041 49.7145C98.1077 51.3216 99.7148 52.1252 101.322 52.1252C102.447 52.1252 103.411 51.643 104.054 50.8395C104.858 50.0359 105.179 49.0716 105.179 47.9466C105.179 46.1788 104.054 44.7323 102.608 44.0895C101.001 43.4466 99.2327 43.9288 98.1077 45.0538C96.822 46.3395 96.6613 48.268 97.3041 49.7145ZM150.501 41.1966C153.233 41.3573 155.483 42.9645 156.286 45.5359L156.608 46.3395L147.447 50.0359C148.09 51.3216 149.376 52.1252 150.822 52.1252C152.268 52.1252 153.393 51.4823 154.197 50.1966L156.447 51.8038C155.161 53.7323 153.072 54.8573 150.822 54.8573C149.054 54.8573 147.286 54.2145 146.001 52.9288C144.715 51.643 144.072 49.8752 144.072 48.1073C143.911 46.3395 144.554 44.5716 145.84 43.2859C146.965 41.8395 148.733 41.1966 150.501 41.1966ZM146.965 47.7859C146.965 46.8216 147.286 45.8573 147.929 45.0538C148.572 44.2502 149.536 43.9288 150.501 43.768C151.626 43.768 152.59 44.2502 153.072 45.2145L146.965 47.7859ZM142.626 54.3752H139.572V34.2859H142.626V54.3752ZM134.751 42.643C133.786 41.6788 132.34 41.0359 131.054 41.0359C127.358 41.1966 124.465 44.2502 124.465 47.9466C124.465 51.643 127.358 54.5359 131.054 54.8573C132.501 54.8573 133.786 54.2145 134.59 53.2502H134.751V54.2145C134.751 56.7859 133.304 58.2323 131.054 58.2323C129.447 58.2323 128.161 57.268 127.679 55.8216L125.108 56.9466C126.072 59.3573 128.483 60.9645 131.215 60.9645C134.751 60.9645 137.643 58.8752 137.643 53.893V41.518H134.911V42.643H134.751ZM133.947 50.8395C133.304 51.643 132.34 52.1252 131.215 52.1252C129.126 51.9645 127.358 50.1966 127.358 47.9466C127.358 45.8573 128.965 43.9288 131.215 43.768C132.179 43.768 133.304 44.2502 133.947 45.0538C134.59 45.8573 134.911 46.8216 134.911 47.9466C135.072 49.0716 134.59 50.0359 133.947 50.8395ZM170.429 34.2859H163.197V54.3752H166.251V46.8216H170.429C172.84 46.9823 174.929 45.8573 176.215 43.768C177.501 41.8395 177.501 39.268 176.215 37.3395C175.09 35.2502 172.84 34.1252 170.429 34.2859ZM166.251 43.9288H170.429C172.358 43.9288 173.804 42.3216 173.804 40.5538C173.804 38.6252 172.197 37.1788 170.429 37.1788H166.09V43.9288H166.251ZM188.911 41.0359C186.661 40.8752 184.572 42.1609 183.608 44.0895L186.34 45.2145C186.822 44.2502 187.947 43.6073 189.072 43.768C189.876 43.6073 190.679 43.9288 191.161 44.4109C191.804 44.893 192.126 45.5359 192.286 46.3395V46.5002C191.322 46.018 190.197 45.6966 189.072 45.6966C186.179 45.6966 183.286 47.3038 183.286 50.1966C183.286 51.4823 183.929 52.6073 184.893 53.4109C185.858 54.2145 187.143 54.6966 188.268 54.5359C189.876 54.6966 191.322 53.893 192.126 52.6073H192.286V54.2145H195.179V46.5002C195.179 43.1252 192.447 41.0359 188.911 41.0359ZM186.34 50.3573C186.34 51.643 187.626 52.1252 188.751 52.1252H188.911C190.679 52.1252 192.286 50.6788 192.447 48.9109C191.643 48.4288 190.679 48.268 189.715 48.268C187.947 48.268 186.34 48.7502 186.34 50.3573ZM205.626 41.518L202.251 50.1966H202.09L198.554 41.518H195.34L200.643 53.7323L197.59 60.4823H200.643L208.84 41.518H205.626ZM181.679 54.3752H178.626V34.2859H181.679V54.3752Z" fill="white"/>
<path fill-rule="evenodd" clip-rule="evenodd" d="M117.554 18.6963C115.626 20.6248 115.626 23.8391 117.554 25.7677C119.483 27.6963 122.697 27.6963 124.626 25.7677C126.554 23.8391 126.554 20.6248 124.626 18.6963C123.661 17.732 122.376 17.2498 121.09 17.2498C119.644 17.2498 118.358 17.732 117.554 18.6963ZM81.2328 25.7677C82.0364 24.9641 82.5185 23.6784 82.5185 22.5534C82.5185 22.232 82.5185 22.0713 82.5185 21.9105H77.8578V23.0355H81.3935C81.3935 23.8391 81.0721 24.482 80.59 24.9641C79.465 26.0891 77.8578 26.2498 76.4114 25.7677C74.965 25.1248 74.1614 23.8391 74.1614 22.232C74.1614 21.2677 74.4828 20.3034 75.2864 19.4998C75.9292 18.6963 76.8935 18.3748 78.0185 18.3748C78.9828 18.3748 79.9471 18.6963 80.59 19.4998L81.3935 18.6963C80.9114 18.2141 80.4292 17.8927 79.9471 17.5713C79.3042 17.2498 78.6614 17.0891 78.0185 17.0891C76.7328 17.0891 75.4471 17.5713 74.4828 18.5355C73.0364 19.982 72.5542 22.0713 73.3578 23.9998C74.1614 25.9284 75.9292 27.0534 78.0185 27.2141C79.1435 27.3748 80.4292 26.732 81.2328 25.7677ZM85.5721 18.5355H89.9114V17.4105H84.2864V27.0534H89.9114V25.9284H85.5721V22.8748H89.59V21.7498H85.5721V18.5355ZM95.0542 27.0534H93.7685V18.5355H91.0364V17.4105H97.7864V18.5355H95.0542V27.0534ZM103.894 17.4105H102.608V27.0534H103.894V17.4105ZM109.358 27.0534H108.072V18.5355H105.34V17.4105H111.929V18.5355H109.197V27.0534H109.358ZM129.286 17.4105H127.84V27.0534H128.965V19.1784L133.786 27.0534H135.072V17.4105H133.786V24.9641L129.286 17.4105ZM118.358 24.9641C119.804 26.4105 122.215 26.4105 123.661 24.9641C125.108 23.357 125.108 20.9463 123.661 19.4998C122.215 18.0534 119.804 18.0534 118.358 19.4998C117.072 21.107 117.072 23.357 118.358 24.9641Z" fill="white"/>
<path d="M23.6961 18.2144C23.214 18.8572 22.8926 19.6608 22.8926 20.4644V55.9822C22.8926 56.7858 23.0533 57.5894 23.6961 58.2322L23.8569 58.3929L43.7854 38.4644V37.9822L23.6961 18.2144Z" fill="url(#paint0_linear_584_77613)"/>
<path d="M50.2143 45.2141L43.625 38.6248V38.1426L50.2143 31.5533H50.375L58.25 36.0533C60.5 37.3391 60.5 39.4283 58.25 40.7141L50.375 45.2141H50.2143Z" fill="url(#paint1_linear_584_77613)"/>
<path d="M50.3749 45.0537L43.6249 38.3037L23.6963 58.393C24.6606 59.1966 26.107 59.1966 27.0713 58.5537L50.3749 45.0537Z" fill="url(#paint2_linear_584_77613)"/>
<path d="M50.3749 31.5537L26.9106 18.2144C25.9463 17.4108 24.4999 17.4108 23.6963 18.2144L43.6249 38.3037L50.3749 31.5537Z" fill="url(#paint3_linear_584_77613)"/>
<path opacity="0.2" d="M50.2137 44.8933L26.9102 58.0719C25.9459 58.7147 24.6602 58.7147 23.6959 58.0719L23.5352 58.2326L23.6959 58.3933C24.6602 59.0362 25.9459 59.0362 26.9102 58.3933L50.3744 45.054L50.2137 44.8933Z" fill="black"/>
<path opacity="0.12" fill-rule="evenodd" clip-rule="evenodd" d="M50.214 44.893L58.2497 40.393C59.0533 39.9109 59.6961 39.268 59.8569 38.3037C59.6961 39.268 59.214 40.2323 58.2497 40.5537L50.214 44.893ZM22.8926 56.143C22.8926 56.7859 23.214 57.5894 23.6961 58.0716L23.8569 58.2323L23.6961 58.393C23.214 57.7501 22.8926 56.9466 22.8926 56.143ZM22.8926 56.143V55.8216C22.8926 55.9823 22.8926 56.143 22.8926 56.143Z" fill="black"/>
<path opacity="0.25" d="M26.9104 18.3749L58.2497 36.2141C59.0533 36.6963 59.6961 37.3391 59.8569 38.3034C59.6961 37.3391 59.214 36.3749 58.2497 36.0534L26.9104 18.2141C24.6604 16.9284 22.8926 18.0534 22.8926 20.6249V20.7856C22.8926 18.2141 24.6604 17.0891 26.9104 18.3749Z" fill="white"/>
<defs>
<linearGradient id="paint0_linear_584_77613" x1="45.2132" y1="32.5983" x2="13.3286" y2="41.0782" gradientUnits="userSpaceOnUse">
<stop stop-color="#00A0FF"/>
<stop offset="0.01" stop-color="#00A1FF"/>
<stop offset="0.26" stop-color="#00BEFF"/>
<stop offset="0.51" stop-color="#00D2FF"/>
<stop offset="0.76" stop-color="#00DFFF"/>
<stop offset="1" stop-color="#00E3FF"/>
</linearGradient>
<linearGradient id="paint1_linear_584_77613" x1="61.2393" y1="38.3035" x2="22.3625" y2="38.3035" gradientUnits="userSpaceOnUse">
<stop stop-color="#FFE000"/>
<stop offset="0.41" stop-color="#FFBD00"/>
<stop offset="0.78" stop-color="#FFA500"/>
<stop offset="1" stop-color="#FF9C00"/>
</linearGradient>
<linearGradient id="paint2_linear_584_77613" x1="43.8606" y1="40.2676" x2="18.2484" y2="83.3497" gradientUnits="userSpaceOnUse">
<stop stop-color="#FF3A44"/>
<stop offset="1" stop-color="#C31162"/>
</linearGradient>
<linearGradient id="paint3_linear_584_77613" x1="24.1283" y1="3.16605" x2="35.5604" y2="22.4042" gradientUnits="userSpaceOnUse">
<stop stop-color="#32A071"/>
<stop offset="0.07" stop-color="#2DA771"/>
<stop offset="0.48" stop-color="#15CF74"/>
<stop offset="0.8" stop-color="#06E775"/>
<stop offset="1" stop-color="#00F076"/>
</linearGradient>
</defs>
</svg>
