<svg width="173" height="30" viewBox="0 0 173 30" fill="none" xmlns="http://www.w3.org/2000/svg">
<path d="M32.9959 10.2117C35.2764 11.5458 36.7498 14.0229 36.7498 16.7758C36.7498 19.3897 35.4008 21.8244 33.2118 23.2103C33.2376 23.4271 33.2493 23.6439 33.2493 23.8655C33.2493 27.0827 30.6427 29.7013 27.4401 29.7013C25.7321 29.7013 24.125 28.9471 23.0293 27.6602C21.9641 28.9141 20.3828 29.7084 18.6161 29.7084C15.9673 29.7084 13.6821 27.8841 13.0064 25.3551C12.7835 25.5342 12.5723 25.7416 12.3635 25.9797C11.2585 27.2171 9.67948 27.9289 8.03011 27.9289C4.82756 27.9289 2.22329 25.3103 2.22329 22.0931C2.22329 21.4496 2.32652 20.8203 2.52595 20.2193C1.19331 18.8075 0.461304 16.9644 0.461304 15.001C0.461304 12.3754 1.81975 9.93597 4.02517 8.55008C4.0017 8.33796 3.98997 8.12819 3.98997 7.91371C3.98997 4.69648 6.59659 2.08028 9.79914 2.08028C10.9277 2.08028 11.9834 2.39611 12.8773 2.9547C14.3179 1.26713 16.3849 0.307857 18.6161 0.307857C22.058 0.307857 25.1315 2.68601 26.0277 5.99751C26.0606 5.96216 26.0934 5.92445 26.1286 5.89145C26.9216 5.08066 27.9704 4.63049 29.0848 4.62342C30.1875 4.61635 31.2245 5.04531 32.0129 5.82782C32.8059 6.61975 33.2399 7.6733 33.2399 8.79756C33.2399 9.28545 33.1602 9.7592 32.9959 10.2117Z" fill="#EFB3AC"/>
<ellipse cx="15.8378" cy="14.1615" rx="1.84518" ry="1.84715" fill="white"/>
<ellipse cx="30.2917" cy="14.1615" rx="1.84518" ry="1.84715" fill="white"/>
<path d="M77.4716 3.82669V18.9746C77.4716 21.654 75.8138 22.9263 73.8701 22.9263C71.9263 22.9263 70.206 21.654 70.206 18.9746V3.82669H66.3859V19.0059C66.3859 24.2011 69.7279 26.4644 73.8701 26.4644C78.0122 26.4644 81.2629 24.2011 81.2629 19.0059V3.82669H77.4716Z" fill="white"/>
<path d="M89.6066 22.7989V16.4876H96.5478V13.1709H89.6066V7.17472H97.665V3.82669H85.8777V26.1493H97.9821V22.7989H89.6066Z" fill="white"/>
<path d="M110.056 13.777L108.751 13.0434C107.156 12.1823 105.532 11.29 105.532 9.34418C105.532 7.75194 106.584 6.76341 108.114 6.76341C109.801 6.76341 110.664 7.94195 110.82 9.98156H114.515C114.453 5.96488 112 3.50677 108.146 3.50677C104.511 3.50677 101.678 5.64259 101.678 9.59913C101.678 12.9159 103.746 14.5105 105.851 15.6241L107.41 16.5165C109.417 17.6638 110.757 18.7798 110.757 20.5981C110.757 22.4164 109.515 23.2125 108.047 23.2125C106.168 23.2125 105.054 22.034 104.926 19.4508H101.2C101.262 23.9774 103.715 26.4644 108.078 26.4644C111.581 26.4644 114.64 24.7446 114.64 20.4393C114.64 16.134 111.615 14.6019 110.051 13.7746L110.056 13.777Z" fill="white"/>
<path d="M133.056 3.82669L128.439 18.7798H128.213L123.532 3.82669H118.816V26.1493H122.319V11.3838H122.574L126.331 23.595H130.281L134.008 11.3838H134.262V26.1469H137.768V3.82669H133.052H133.056Z" fill="white"/>
<path d="M146.086 22.7989V16.4876H153.029V13.1709H146.086V7.17472H154.144V3.82669H142.357V26.1493H154.461V22.7989H146.086Z" fill="white"/>
<path d="M163.988 3.82669H158.159V26.1493H163.988C169.021 26.1493 173 23.5036 173 14.9868C173 5.38766 167.906 3.8291 163.988 3.8291V3.82669ZM163.954 22.7027H161.979V7.27334H163.954C166.758 7.27334 169.081 8.7381 169.081 14.9243C169.081 21.1104 166.885 22.7027 163.954 22.7027Z" fill="white"/>
<path d="M63.2428 22.6642C60.5639 22.6257 60.314 23.0899 59.5884 23.7008L59.5139 23.6286C59.5139 23.6286 59.5164 23.6262 59.5164 23.6214C59.5428 23.595 59.5692 23.5685 59.5908 23.542C59.6101 23.5252 59.6245 23.5084 59.6365 23.4939C61.3039 21.5602 62.3058 18.6042 62.3058 14.6669C62.3058 9.35139 60.4918 6.15248 57.688 4.5386C56.5059 3.85071 55.146 3.50436 53.6708 3.50436C51.4003 3.50436 49.4133 4.31251 47.9237 5.90234C46.1241 7.81688 45.0405 10.542 45.0405 14.6669C45.0405 21.9666 48.4162 25.8583 53.1614 26.1469H65.0328V22.6882L63.238 22.6617L63.2428 22.6642ZM55.9268 22.2384C55.5064 22.5367 55.0451 22.7315 54.5477 22.8373C54.2666 22.8951 53.9759 22.9263 53.6756 22.9263C50.9702 22.9263 48.9304 20.5668 48.9304 14.9868C48.9304 9.40671 50.9702 7.04722 53.6756 7.04722C56.3809 7.04722 58.3919 9.40912 58.3919 14.9868C58.3919 18.8231 57.4453 21.1369 55.9701 22.2096C55.9533 22.2216 55.9412 22.2336 55.9268 22.2384Z" fill="white"/>
<path d="M6.79935 20.7713L6.0209 20.0738C6.82578 19.1718 7.27027 18.0101 7.27027 16.8003C7.27027 15.4895 6.76091 14.2556 5.8335 13.3296L6.5711 12.5912C7.69553 13.7168 8.31301 15.2105 8.31301 16.8027C8.31301 18.2699 7.77482 19.6817 6.79695 20.7737L6.79935 20.7713Z" fill="black"/>
<path d="M15.8378 15.0851C16.3473 15.0851 16.7604 14.6716 16.7604 14.1615C16.7604 13.6514 16.3473 13.2379 15.8378 13.2379C15.3283 13.2379 14.9152 13.6514 14.9152 14.1615C14.9152 14.6716 15.3283 15.0851 15.8378 15.0851Z" fill="black"/>
<path d="M30.2917 15.0851C30.8012 15.0851 31.2143 14.6716 31.2143 14.1615C31.2143 13.6514 30.8012 13.2379 30.2917 13.2379C29.7821 13.2379 29.3691 13.6514 29.3691 14.1615C29.3691 14.6716 29.7821 15.0851 30.2917 15.0851Z" fill="black"/>
<path d="M37.1614 16.8051C37.1614 13.9958 35.6526 11.468 33.3172 10.1066C33.4854 9.64724 33.5671 9.16379 33.5671 8.66351C33.5671 7.51864 33.1202 6.44111 32.3081 5.63297C31.5032 4.83444 30.4389 4.3967 29.3096 4.40391C28.1708 4.41113 27.0944 4.87052 26.2823 5.69791C26.2463 5.73158 26.2127 5.77006 26.179 5.80614C25.2636 2.42684 22.1162 0 18.5915 0C16.3042 0 14.1899 0.978914 12.7147 2.70103C11.7993 2.131 10.7181 1.80871 9.56246 1.80871C6.28287 1.80871 3.61355 4.47847 3.61355 7.76156C3.61355 7.98044 3.62556 8.19691 3.64719 8.41097C1.39112 9.82522 0 12.3146 0 14.994C0 16.9975 0.74962 18.876 2.11431 20.3191C1.91009 20.93 1.80437 21.5746 1.80437 22.2288C1.80437 25.5119 4.47129 28.1841 7.75087 28.1841C9.43992 28.1841 11.0593 27.4601 12.1885 26.195C12.4024 25.9545 12.621 25.7428 12.8468 25.5576C13.5388 28.1384 15.879 30 18.5915 30C20.4007 30 22.0201 29.1894 23.1109 27.9099C24.2329 29.2255 25.8787 29.9952 27.6278 29.9952C30.9074 29.9952 33.5767 27.323 33.5767 24.0399C33.5767 23.8138 33.5647 23.5926 33.5383 23.3713C35.7799 21.957 37.1614 19.4725 37.1614 16.8051ZM18.5915 28.9585C16.2442 28.9585 14.238 27.2701 13.7863 24.9731C14.3869 24.6989 15.0573 24.5715 15.8309 24.5715V23.5252C14.0049 23.5252 12.597 24.153 11.4053 25.5023C10.4779 26.5437 9.1444 27.1402 7.74847 27.1402C5.04552 27.1402 2.84711 24.9371 2.84711 22.2312C2.84711 21.2475 3.13543 20.2998 3.69043 19.4773C4.31512 18.5056 4.65869 17.3391 4.65869 16.1942H3.61355C3.61355 17.1274 3.32043 18.1183 2.81828 18.9C2.73419 19.0227 2.65731 19.1478 2.58282 19.2776C1.58814 18.0774 1.04274 16.5814 1.04274 14.994C1.04274 12.5695 2.35457 10.3279 4.46889 9.13974L4.78844 8.95935L4.72597 8.59617C4.68032 8.32438 4.65629 8.04297 4.65629 7.76156C4.65629 5.05572 6.8571 2.85497 9.56005 2.85497C11.7849 2.85497 13.7382 4.39189 14.298 6.50605C12.4048 6.90291 10.7013 8.00449 9.55765 9.61357L10.4106 10.2197C11.6696 8.44705 13.7118 7.38635 15.8814 7.38635C16.4556 7.38635 17.025 7.46092 17.5752 7.60282L17.8371 6.59264C17.2004 6.42668 16.5421 6.3425 15.8814 6.3425C15.7012 6.3425 15.521 6.34972 15.3432 6.36174C15.0549 5.16155 14.4206 4.11769 13.5508 3.33601C14.8218 1.87605 16.6334 1.04867 18.5891 1.04867C21.7222 1.04867 24.514 3.26385 25.2276 6.31364C25.2732 6.50846 25.2949 6.68644 25.2949 6.85721C25.2949 8.06462 24.3146 9.04834 23.1085 9.04834C21.9023 9.04834 20.9197 8.06462 20.9197 6.85721H19.8745C19.8745 8.64187 21.3257 10.0946 23.1085 10.0946C23.8701 10.0946 24.5693 9.83003 25.1219 9.38748C25.2252 10.0297 25.4246 10.9509 25.6336 11.9201C25.8787 13.0746 26.2175 14.6549 26.203 14.9747C26.1622 15.7468 25.6961 16.2038 24.86 16.2952C24.0022 16.3866 23.4929 16.9278 23.4929 17.7383V18.1472C22.7024 17.7119 21.9288 18.0774 21.196 18.4478C19.8049 19.1429 18.4257 19.5542 16.9698 19.0251C19.2282 18.5272 20.9245 16.5093 20.9245 14.0968C20.9245 11.3164 18.6636 9.05315 15.8862 9.05315C13.1087 9.05315 10.8455 11.3164 10.8455 14.0968C10.8455 15.1672 11.1794 16.1605 11.7512 16.9783V22.236H12.7964V18.0799C13.6373 18.7365 14.6873 19.1333 15.8333 19.1405C16.7968 22.0532 20.1797 22.8686 23.0268 21.298C23.1974 21.2042 23.3511 21.1296 23.5001 21.0767V24.0495C23.5001 26.7578 21.3017 28.9585 18.5987 28.9585H18.5915ZM11.8858 14.0944C11.8858 11.8889 13.6782 10.0946 15.8838 10.0946C18.0894 10.0946 19.8793 11.8889 19.8793 14.0944C19.8793 16.3 18.087 18.0967 15.8838 18.0967C13.6806 18.0967 11.8858 16.3 11.8858 14.0944ZM33.3076 22.2697C33.1587 21.7983 32.9544 21.3461 32.6949 20.9228L31.806 21.4712C32.2817 22.2432 32.5316 23.1332 32.5316 24.0423C32.5316 26.7482 30.3308 28.9513 27.6278 28.9513C26.0973 28.9513 24.663 28.237 23.738 27.0296C24.2497 26.1541 24.5404 25.1367 24.5404 24.0495V21.0936C24.6606 21.1393 24.7879 21.2042 24.9249 21.2836C27.9474 23.0466 31.472 21.9546 32.3129 18.3035C30.4028 19.7082 28.6537 19.3666 26.8782 18.4719C26.1334 18.0967 25.3453 17.6638 24.5332 18.1039V17.7383C24.5332 17.5363 24.5669 17.3775 24.9681 17.3342C26.3232 17.1875 27.1737 16.3289 27.2434 15.0325C27.2674 14.5947 27.0344 13.4835 26.6547 11.7037C26.4361 10.6863 26.2103 9.63521 26.1262 9.04353C26.1117 8.93049 26.1045 8.80542 26.1021 8.66351C26.0949 7.84094 26.4241 7.05203 27.0271 6.4363C27.6446 5.81095 28.4567 5.4622 29.3169 5.45498C30.1626 5.45979 30.9675 5.77728 31.5729 6.38098C32.1856 6.9895 32.522 7.80245 32.522 8.66832C32.522 9.00265 32.4739 9.32735 32.373 9.64002C32.0486 9.50533 31.7123 9.39229 31.3639 9.30089C30.72 9.13493 30.0713 9.05315 29.4346 9.05315V10.0994C29.9824 10.0994 30.5446 10.1716 31.1044 10.3159C34.0548 11.0855 36.1163 13.7553 36.1163 16.8123C36.1163 18.9866 35.0543 21.0238 33.3076 22.2745V22.2697Z" fill="black"/>
</svg>
