<svg width="38" height="30" viewBox="0 0 38 30" fill="none" xmlns="http://www.w3.org/2000/svg">
<g clip-path="url(#clip0_1466_7044)">
<path d="M37.1292 16.8037C37.1292 13.9946 35.6217 11.467 33.2884 10.1058C33.4564 9.644 33.538 9.16059 33.538 8.66276C33.538 7.51557 33.0939 6.44054 32.2826 5.63245C31.476 4.83399 30.415 4.39628 29.2867 4.4035C28.1465 4.41071 27.0735 4.87007 26.2621 5.69739C26.2261 5.73106 26.1925 5.76954 26.1589 5.80561C25.2419 2.42659 22.0972 -6.10352e-05 18.5756 -6.10352e-05C16.2928 -6.10352e-05 14.1779 0.978775 12.704 2.70076C11.7894 2.13077 10.7092 1.8085 9.55452 1.8085C6.27783 1.8085 3.61086 4.47805 3.61086 7.76088C3.61086 7.97974 3.62286 8.19378 3.64687 8.41023C1.39038 9.82437 0.000488281 12.3136 0.000488281 14.9927C0.000488281 16.9961 0.749448 18.8768 2.11294 20.3174C1.90889 20.9307 1.80327 21.5728 1.80327 22.2294C1.80327 25.5122 4.46784 28.1842 7.74454 28.1842C9.4321 28.1842 11.0476 27.4579 12.1783 26.1952C12.3919 25.9523 12.608 25.7407 12.836 25.5579C13.5274 28.1385 15.8655 29.9999 18.5756 29.9999C20.3832 29.9999 22.0012 29.1895 23.091 27.91C24.212 29.2231 25.8564 29.9927 27.604 29.9927C30.8807 29.9927 33.5476 27.3208 33.5476 24.0379C33.5476 23.8119 33.5356 23.5906 33.5092 23.3693C35.7489 21.9552 37.1292 19.4708 37.1292 16.8037ZM15.8727 15.9018C14.8741 15.9018 14.0675 15.0913 14.0675 14.0933C14.0675 13.0952 14.8741 12.2847 15.8727 12.2847C16.8713 12.2847 17.6779 13.0928 17.6779 14.0933C17.6779 15.0937 16.8689 15.9018 15.8727 15.9018ZM30.3093 15.9018C29.3131 15.9018 28.5042 15.0913 28.5042 14.0933C28.5042 13.0952 29.3131 12.2847 30.3093 12.2847C31.3056 12.2847 32.1145 13.0928 32.1145 14.0933C32.1145 15.0937 31.308 15.9018 30.3093 15.9018Z" fill="#EFB3AC"/>
</g>
<path d="M6.80194 20.7594L6.02307 20.0622C6.82838 19.1608 7.2731 17.9997 7.2731 16.7905C7.2731 15.4804 6.76348 14.2472 5.83557 13.3217L6.57357 12.5837C7.69859 13.7087 8.31639 15.2016 8.31639 16.7929C8.31639 18.2593 7.77792 19.6704 6.79953 20.7618L6.80194 20.7594Z" fill="#101012"/>
<path d="M15.8988 14.994C16.3993 14.994 16.8051 14.5882 16.8051 14.0877C16.8051 13.5872 16.3993 13.1815 15.8988 13.1815C15.3983 13.1815 14.9926 13.5872 14.9926 14.0877C14.9926 14.5882 15.3983 14.994 15.8988 14.994Z" fill="#101012"/>
<path d="M30.3515 14.994C30.852 14.994 31.2577 14.5882 31.2577 14.0877C31.2577 13.5872 30.852 13.1815 30.3515 13.1815C29.8509 13.1815 29.4452 13.5872 29.4452 14.0877C29.4452 14.5882 29.8509 14.994 30.3515 14.994Z" fill="#101012"/>
<path d="M37.1811 16.796C37.1811 13.9883 35.6714 11.4618 33.3348 10.1012C33.5031 9.64202 33.5848 9.15884 33.5848 8.65883C33.5848 7.51458 33.1377 6.43763 32.3252 5.62992C31.5199 4.83183 30.455 4.39432 29.3251 4.40153C28.1857 4.40874 27.1087 4.86789 26.2962 5.69483C26.2602 5.72848 26.2265 5.76695 26.1928 5.803C25.277 2.42553 22.1279 0 18.6013 0C16.3128 0 14.1974 0.978385 12.7214 2.69957C11.8055 2.12985 10.7238 1.80773 9.5675 1.80773C6.28619 1.80773 3.61546 4.47605 3.61546 7.75737C3.61546 7.97613 3.62748 8.19248 3.64911 8.40642C1.39186 9.81991 0 12.3079 0 14.9859C0 16.9883 0.750016 18.8658 2.11543 20.3081C1.9111 20.9187 1.80533 21.5629 1.80533 22.2168C1.80533 25.4981 4.47365 28.1688 7.75497 28.1688C9.44491 28.1688 11.0651 27.4453 12.195 26.1808C12.4089 25.9404 12.6277 25.7289 12.8536 25.5438C13.546 28.1232 15.8873 29.9838 18.6013 29.9838C20.4115 29.9838 22.0317 29.1737 23.1231 27.8948C24.2457 29.2097 25.8924 29.979 27.6424 29.979C30.9237 29.979 33.5944 27.3083 33.5944 24.0269C33.5944 23.801 33.5824 23.5798 33.556 23.3587C35.7988 21.9452 37.1811 19.4619 37.1811 16.796ZM18.6013 28.9429C16.2527 28.9429 14.2455 27.2554 13.7936 24.9596C14.3945 24.6856 15.0652 24.5582 15.8393 24.5582V23.5125C14.0123 23.5125 12.6036 24.1399 11.4113 25.4885C10.4834 26.5294 9.14923 27.1256 7.75256 27.1256C5.04818 27.1256 2.84862 24.9236 2.84862 22.2192C2.84862 21.236 3.13708 20.2889 3.69238 19.4667C4.3174 18.4956 4.66115 17.3297 4.66115 16.1854H3.61546C3.61546 17.1181 3.32218 18.1085 2.81977 18.8898C2.73563 19.0124 2.65871 19.1374 2.58419 19.2672C1.58898 18.0677 1.04329 16.5725 1.04329 14.9859C1.04329 12.5628 2.35582 10.3223 4.47125 9.1348L4.79096 8.95451L4.72846 8.59152C4.68279 8.31988 4.65875 8.03863 4.65875 7.75737C4.65875 5.05299 6.86072 2.85342 9.5651 2.85342C11.7911 2.85342 13.7455 4.38951 14.3056 6.50254C12.4113 6.89918 10.707 8.00016 9.5627 9.60837L10.4161 10.2142C11.6757 8.44248 13.719 7.38236 15.8898 7.38236C16.4643 7.38236 17.034 7.45688 17.5845 7.59871L17.8465 6.58908C17.2095 6.42321 16.5508 6.33907 15.8898 6.33907C15.7095 6.33907 15.5292 6.34628 15.3513 6.3583C15.0628 5.15876 14.4282 4.11547 13.558 3.3342C14.8296 1.87504 16.6422 1.0481 18.5989 1.0481C21.7336 1.0481 24.5269 3.26209 25.2409 6.31023C25.2866 6.50494 25.3082 6.68283 25.3082 6.85351C25.3082 8.06026 24.3274 9.04346 23.1207 9.04346C21.9139 9.04346 20.9307 8.06026 20.9307 6.85351H19.885C19.885 8.6372 21.337 10.0891 23.1207 10.0891C23.8827 10.0891 24.5822 9.82472 25.1351 9.3824C25.2385 10.0242 25.438 10.9449 25.6472 11.9137C25.8924 13.0676 26.2313 14.6469 26.2169 14.9667C26.176 15.7383 25.7097 16.195 24.8731 16.2864C24.0149 16.3777 23.5053 16.9186 23.5053 17.7287V18.1374C22.7144 17.7023 21.9404 18.0677 21.2072 18.4379C19.8153 19.1326 18.4355 19.5437 16.9787 19.0148C19.2384 18.5172 20.9355 16.5003 20.9355 14.0892C20.9355 11.3103 18.6735 9.04826 15.8946 9.04826C13.1157 9.04826 10.8512 11.3103 10.8512 14.0892C10.8512 15.159 11.1853 16.1518 11.7575 16.9691V22.224H12.8031V18.0701C13.6445 18.7263 14.695 19.123 15.8417 19.1302C16.8056 22.0413 20.1903 22.8562 23.0389 21.2865C23.2096 21.1927 23.3635 21.1182 23.5125 21.0653V24.0366C23.5125 26.7433 21.3129 28.9429 18.6086 28.9429H18.6013ZM11.8921 14.0868C11.8921 11.8825 13.6854 10.0891 15.8922 10.0891C18.0989 10.0891 19.8898 11.8825 19.8898 14.0868C19.8898 16.2912 18.0965 18.0869 15.8922 18.0869C13.6878 18.0869 11.8921 16.2912 11.8921 14.0868ZM33.3252 22.2577C33.1762 21.7865 32.9718 21.3346 32.7122 20.9115L31.8228 21.4596C32.2987 22.2312 32.5487 23.1207 32.5487 24.0293C32.5487 26.7337 30.3468 28.9357 27.6424 28.9357C26.1111 28.9357 24.676 28.2217 23.7505 27.015C24.2625 26.14 24.5534 25.1231 24.5534 24.0366V21.0822C24.6736 21.1278 24.801 21.1927 24.938 21.2721C27.9621 23.0341 31.4886 21.9428 32.33 18.2936C30.4189 19.6975 28.6689 19.3562 26.8924 18.4619C26.1472 18.0869 25.3587 17.6542 24.5462 18.0941V17.7287C24.5462 17.5268 24.5798 17.3681 24.9813 17.3249C26.3371 17.1782 27.1881 16.32 27.2578 15.0243C27.2818 14.5868 27.0486 13.4762 26.6688 11.6974C26.4501 10.6805 26.2241 9.63 26.14 9.03865C26.1255 8.92566 26.1183 8.80066 26.1159 8.65883C26.1087 7.8367 26.438 7.04822 27.0414 6.43282C27.6592 5.80781 28.4717 5.45925 29.3323 5.45204C30.1785 5.45684 30.9838 5.77416 31.5896 6.37753C32.2026 6.98572 32.5391 7.79824 32.5391 8.66364C32.5391 8.99778 32.4911 9.32231 32.3901 9.63481C32.0656 9.5002 31.729 9.38721 31.3805 9.29586C30.7362 9.13 30.0872 9.04826 29.4501 9.04826V10.094C29.9982 10.094 30.5607 10.1661 31.1208 10.3103C34.0728 11.0796 36.1354 13.7479 36.1354 16.8032C36.1354 18.9764 35.0728 21.0125 33.3252 22.2625V22.2577Z" fill="#101012"/>
<defs>
<clipPath id="clip0_1466_7044">
<rect width="37.1287" height="30" fill="white" transform="translate(0.000488281 -6.10352e-05)"/>
</clipPath>
</defs>
</svg>
