<svg width="106" height="13" viewBox="0 0 106 13" fill="none" xmlns="http://www.w3.org/2000/svg">
<path fill-rule="evenodd" clip-rule="evenodd" d="M7.74789 8.74289C7.05363 8.74289 5.7643 8.24289 3.97906 5.64289C3.2848 4.74289 1.89629 4.44289 0.904488 5.04289C-2.5668 8.24289 4.87168 12.9429 7.74789 12.7429C12.211 13.7429 16.079 5.14289 19.0544 4.74289C19.6495 4.74289 20.9388 5.24289 22.8232 7.84289C35.2207 23.7429 38.3944 -3.35711 45.4362 7.84289C49.8001 14.3429 56.2468 14.3429 60.5115 7.84289C62.2968 5.24289 63.5861 4.74289 64.1812 4.74289C64.7763 4.74289 66.0656 5.24289 67.95 7.84289C72.2147 14.3429 78.7606 14.3429 83.0253 7.84289C90.0671 -3.55711 92.9433 23.8429 105.638 7.84289C107.225 5.44289 103.159 3.64289 101.77 5.74289C99.9851 8.24289 98.6957 8.74289 98.0015 8.74289C97.4064 8.74289 96.1171 8.24289 94.2327 5.64289C89.8687 -0.857112 83.4221 -0.857112 79.1573 5.64289C77.3721 8.24289 76.0828 8.74289 75.4877 8.74289C74.8926 8.74289 73.6033 8.24289 71.7188 5.64289C67.3549 -0.857112 60.9083 -0.857112 56.6435 5.64289C49.6018 16.9429 46.428 -10.2571 34.0305 5.64289C26.9888 17.0429 24.1126 -10.3571 11.4175 5.64289C9.63231 8.24289 8.34297 8.74289 7.74789 8.74289Z" fill="url(#paint0_linear_748_8711)"/>
<defs>
<linearGradient id="paint0_linear_748_8711" x1="30.7457" y1="20" x2="82.6872" y2="-25.076" gradientUnits="userSpaceOnUse">
<stop stop-color="#256AF4"/>
<stop offset="1" stop-color="#3269D7"/>
</linearGradient>
</defs>
</svg>
