<svg xmlns:xlink="http://www.w3.org/1999/xlink" xmlns="http://www.w3.org/2000/svg" class="MuiSvgIcon-root" focusable="false" viewBox="0 0 24 24" aria-hidden="true" fill="none" height="24" width="24"><path d="M19.2 7.2c-.212 0-.416.084-.566.234-.15.15-.234.354-.234.566v8c0 .637-.253 1.247-.703 1.697-.45.45-1.06.703-1.697.703H8c-.212 0-.416.084-.566.234-.15.15-.234.354-.234.566 0 .212.084.416.234.566.15.15.354.234.566.234h8c1.06 0 2.078-.421 2.828-1.172C19.578 18.078 20 17.061 20 16V8c0-.212-.084-.416-.234-.566-.15-.15-.354-.234-.566-.234zm-2.4 7.2v-8c0-.637-.253-1.247-.703-1.697-.45-.45-1.06-.703-1.697-.703h-8c-.637 0-1.247.253-1.697.703C4.253 5.153 4 5.763 4 6.4v8c0 .636.253 1.247.703 1.697.45.45 1.06.703 1.697.703h8c.636 0 1.247-.253 1.697-.703.45-.45.703-1.06.703-1.697zm-6.4-8.8H12v3.888l-.288-.24c-.144-.12-.325-.185-.512-.185s-.368.065-.512.185l-.288.24V5.6zm-4.8 8.8v-8c0-.212.084-.416.234-.566.15-.15.354-.234.566-.234h2.4v5.6c0 .153.044.303.126.432.083.128.2.23.34.295.138.064.293.087.444.066.152-.022.294-.086.41-.185l1.08-.904 1.08.904c.145.124.33.192.52.192.116 0 .23-.025.336-.072.139-.064.256-.167.339-.296.082-.13.125-.279.125-.432V5.6h.8c.212 0 .416.084.566.234.15.15.234.354.234.566v8c0 .212-.084.416-.234.566-.15.15-.354.234-.566.234h-8c-.212 0-.416-.084-.566-.234-.15-.15-.234-.354-.234-.566z" fill="#868E96"></path></svg>