<svg xmlns:xlink="http://www.w3.org/1999/xlink" xmlns="http://www.w3.org/2000/svg" class="MuiSvgIcon-root" focusable="false" viewBox="0 0 24 24" aria-hidden="true" fill="none" height="24" width="24"><path d="M11.5 19c1.99 0 3.897-.79 5.303-2.197C18.21 15.397 19 13.49 19 11.5c0-1.99-.79-3.897-2.197-5.303C15.397 4.79 13.49 4 11.5 4c-1.99 0-3.897.79-5.303 2.197C4.79 7.603 4 9.51 4 11.5c.002 1.988.793 3.895 2.2 5.3 1.405 1.407 3.312 2.197 5.3 2.2zm0-13.536c1.6 0 3.135.636 4.267 1.767 1.132 1.132 1.767 2.666 1.767 4.267 0 1.6-.635 3.136-1.766 4.267-1.132 1.132-2.667 1.768-4.267 1.768-1.6 0-3.135-.635-4.267-1.767-1.132-1.13-1.768-2.666-1.768-4.266.002-1.6.637-3.134 1.769-4.265C8.366 6.103 9.9 5.468 11.5 5.466v-.002zm.683 9.711c0 .314-.19.597-.479.717-.29.12-.623.053-.845-.168-.222-.222-.288-.556-.168-.845.12-.29.403-.479.716-.479.206 0 .404.082.55.228.144.146.226.343.226.55v-.003zM8.989 9.134c-.068-.193-.056-.405.033-.589.212-.446.546-.822.962-1.087.416-.264.899-.406 1.392-.409h.016c.688.003 1.349.272 1.844.75.494.479.785 1.13.811 1.818.018.564-.147 1.12-.47 1.583-.322.464-.785.81-1.32.99 0 0-.077.027-.077.073v.615c0 .426-.346.771-.772.771-.426 0-.771-.345-.771-.77v-.616c.007-.7.459-1.316 1.123-1.534.458-.155.761-.591.746-1.075-.031-.59-.516-1.057-1.108-1.065-.42.005-.801.248-.98.627-.135.285-.429.46-.743.442-.315-.018-.586-.226-.686-.524z" fill="#868E96"></path></svg>