<svg xmlns:xlink="http://www.w3.org/1999/xlink" xmlns="http://www.w3.org/2000/svg" class="MuiSvgIcon-root" focusable="false" viewBox="0 0 24 24" aria-hidden="true" fill="none" height="24" width="24"><path d="M16.532 5.834H9.106c-.7 0-1.27.57-1.27 1.27V17.73c0 .7.57 1.27 1.27 1.27l7.426-.002c.7 0 1.27-.57 1.27-1.27V7.105c0-.7-.57-1.27-1.27-1.27v0zm.33 11.894c0 .182-.148.329-.33.329H9.106c-.182 0-.33-.147-.33-.33L8.776 7.106c0-.182.147-.33.329-.33h7.428c.182 0 .33.148.33.33v10.623z" fill="#868E96" stroke="#868E96" stroke-width="0.5px"></path><path d="M7.035 16.224c-.31 0-.564-.253-.564-.564V5.035c0-.31.253-.564.564-.564h7.426c.311 0 .565.253.565.564 0 .13.104.235.235.235.13 0 .235-.105.235-.235 0-.57-.463-1.035-1.035-1.035l-7.426.002C6.463 4.002 6 4.465 6 5.037v10.625c0 .571.465 1.035 1.035 1.035.13 0 .235-.105.235-.236 0-.13-.105-.237-.235-.237v0z" fill="#868E96" stroke="#868E96" stroke-width="0.5px"></path></svg>