<svg xmlns:xlink="http://www.w3.org/1999/xlink" xmlns="http://www.w3.org/2000/svg" width="100" height="100" fill="none" viewBox="0 0 100 100">
    <path fill="#0081D5" d="M81.9 44.325v-3.683L50.465 29 19 40.104v4.221l12.23 4.316v16.25l.656.523c4.686 3.754 11.624 5.63 18.564 5.63 6.94 0 13.879-1.873 18.565-5.62l.655-.525v-16.25l5.242-1.85v8.193l-3.495 8.736v3.821h10.484v-3.83l-3.495-8.736v-9.426l3.495-1.232zm-6.854 19.73l1.613-4.033 1.613 4.033h-3.226zm-24.61-31.34l26.284 9.732-26.27 9.27-26.928-9.503 26.915-9.5zm15.74 30.466c-8.095 5.828-23.356 5.828-31.45 0V49.867l15.724 5.551 15.726-5.55V63.18z"/>
</svg>